<?xml version="1.0" encoding="utf-8"?>
<!-- Generator: Adobe Illustrator 22.1.0, SVG Export Plug-In . SVG Version: 6.00 Build 0)  -->
<svg version="1.1"
	 id="Layer_1" xmlns:cc="http://creativecommons.org/ns#" xmlns:dc="http://purl.org/dc/elements/1.1/" xmlns:rdf="http://www.w3.org/1999/02/22-rdf-syntax-ns#"
	 xmlns="http://www.w3.org/2000/svg" xmlns:xlink="http://www.w3.org/1999/xlink" x="0px" y="0px" viewBox="0 0 500 500"
	 style="enable-background:new 0 0 500 500;" xml:space="preserve">
<style type="text/css">
	.st0{fill:#E0D83A;}
	.st1{fill:none;stroke:#D3FFBB;stroke-miterlimit:10;}
	.st2{fill:#FFFFFF;}
</style>
<circle class="st0" cx="250" cy="251" r="225.9"/>
<title>FLUG</title>
<g>
	<path class="st1" d="M139.6,82.9"/>
</g>
<g>
	<g>
		<path class="st2" d="M356.3,262.5H143.7v-52.8h-27.5v124.5h27.5v-30.7h212.6v30.7h27.5v-86.9h-27.5V262.5z"/>
		<path class="st2" d="M177.1,206.1c-13.8,0-25.1,11.2-25.1,25.1c0,13.8,11.2,25.1,25.1,25.1c13.8,0,25.1-11.2,25.1-25.1
			C202.2,217.3,191,206.1,177.1,206.1z M319.1,216.3c-17.2-5.9-63.8-8.5-84.6-5.4c-10.3,1.6-19.3,4-27.1,6.8
			c1.8,4.1,2.8,8.6,2.8,13.3c0,10-4.5,19-11.5,25.1h150C348.7,239,339.6,223.4,319.1,216.3z"/>
	</g>
</g>
</svg>
