<?xml version="1.0" encoding="utf-8"?>
<!-- Generator: Adobe Illustrator 22.1.0, SVG Export Plug-In . SVG Version: 6.00 Build 0)  -->
<svg version="1.1"
	 id="Layer_1" xmlns:cc="http://creativecommons.org/ns#" xmlns:dc="http://purl.org/dc/elements/1.1/" xmlns:rdf="http://www.w3.org/1999/02/22-rdf-syntax-ns#"
	 xmlns="http://www.w3.org/2000/svg" xmlns:xlink="http://www.w3.org/1999/xlink" x="0px" y="0px" viewBox="0 0 500 500"
	 style="enable-background:new 0 0 500 500;" xml:space="preserve">
<style type="text/css">
	.st0{fill:#BBDA6D;}
	.st1{fill:#FFFFFF;}
</style>
<circle class="st0" cx="249.3" cy="269.3" r="225.9"/>
<title>FLUG</title>
<g>
	<g>
		<g>
			<path class="st1" d="M289.1,198.4c-1.3,6-2.5,10.6-0.9,26.3l-0.2-0.1c2.8,1.4,5,3.7,6.4,6.5c1.6,0.5,10.2,2.3,26.2-4.7
				c0,0-1-20.9-3.6-23.3C316.1,202.2,304,200.3,289.1,198.4z"/>
			<path class="st1" d="M293,246.5c-2.7,3.5-6.8,5.7-11.6,5.7c-8.1,0-14.6-6.5-14.6-14.6c0-4.3,1.9-8.2,4.9-10.9
				c-0.7-14.3,1-24,2.4-30.1c-21.4-2.5-43.2-4.5-45.9-3.9C223,193.9,97.9,324,97.9,324s-7.2,3.4-1.2,10.1c6,6.6,88.5,87.9,88.5,87.9
				s4.4,4.6,10.1,0c5.6-4.6,131.7-132.3,131.7-132.3l-5-46.8C321.9,242.7,306,250,293,246.5z"/>
			<path class="st1" d="M390.8,124c-7.4-6.3-15.5-9.4-24.2-9.4c-17,0-36,11.7-59.8,36.7c-13.6,14.3-23.6,30.6-28.3,45.9
				c0,0-0.1,0-0.1,0l0.1,0.1c-1.4,6.2-2.7,10.4-1.8,26.7c0.1,0.3,0.2,0.7,0.3,1c1.3,4.7,3.7,8.7,7,11.8c4.7,4.4,11,6.7,18.9,6.7
				c18.9,0,45.4-13.2,67.6-33.6c22.2-20.4,34.2-41.1,33.9-58.5C404.1,140.7,399.6,131.5,390.8,124z M365.4,204.2
				c-20.6,18.9-45.8,31.7-62.6,31.7c-5.9,0-10.6-1.6-13.8-4.6c-2.2-2.1-3.8-4.8-4.8-7.9c-0.8-16,0.4-19.3,1.7-25.3c0,0,0,0,0,0
				c0-0.1,0.1-0.1,0.1-0.2c0,0,0,0,0,0l0,0c4.5-13.8,13.7-28.4,26.1-41.4c22-23.1,39.8-34.3,54.4-34.3c7,0,13.4,2.5,19.4,7.7
				c7.1,6.1,10.8,13.3,11,21.7C397.2,166.5,386,185.3,365.4,204.2z"/>
		</g>
	</g>
</g>
</svg>
