<?xml version="1.0" encoding="utf-8"?>
<!-- Generator: Adobe Illustrator 22.1.0, SVG Export Plug-In . SVG Version: 6.00 Build 0)  -->
<svg version="1.1"
	 id="Layer_1" xmlns:cc="http://creativecommons.org/ns#" xmlns:dc="http://purl.org/dc/elements/1.1/" xmlns:rdf="http://www.w3.org/1999/02/22-rdf-syntax-ns#"
	 xmlns="http://www.w3.org/2000/svg" xmlns:xlink="http://www.w3.org/1999/xlink" x="0px" y="0px" viewBox="0 0 500 500"
	 style="enable-background:new 0 0 500 500;" xml:space="preserve">
<style type="text/css">
	.st0{fill:#0486E0;}
	.st1{fill:#FFFFFF;}
	.st2{fill:#FFFFFF;stroke:#FFFFFF;stroke-width:7;stroke-miterlimit:10;}
</style>
<g>
	<circle class="st0" cx="253.3" cy="255.3" r="225.9"/>
</g>
<title>FLUG</title>
<g>
	<path class="st1" d="M275.3,314.4c15.7,18.8,38.8,34.1,72.1,33.7c77.2-1.2,95.9-86.6,97.1-104.2c1.2-17.6-44.4-37.5-111.1-36.2
		c-80.1,1.4-89.3,22.4-88.7,36.9c-14.1,1.8-41.4,9.1-31.8,38C224.9,318.8,263.8,321,275.3,314.4z M345.7,217.3
		c76.3,3.5,96.6,24.5,72.8,31.6c-47.4,14-152.7,3.8-152.7-8.7C265.8,231.5,275.5,214.1,345.7,217.3z M249.9,267.7
		c3.2,9.5,8.3,21.7,15.9,33.8c-6.5,2.7-16.5,4-27.2-4.8C221.5,282.7,231.8,265.9,249.9,267.7z"/>
	<path class="st1" d="M319.4,187.8c-3.5-12.8,7.1-16.4,10.5-39.8c3.5-23.4-17.6-35.1-17.6-35.1s14,29.3,3.5,41
		C305.3,165.6,319.4,187.8,319.4,187.8z"/>
	<path class="st1" d="M342.7,190.1c0.1-9.6,10.5-8.2,16.4-29.3s-16.4-35.1-16.4-35.1s14,29.3,3.5,39.8
		C335.7,176.1,342.7,190.1,342.7,190.1z"/>
</g>
<g>
	<g>
		<path class="st2" d="M189.9,269.8c-4.2,5.1-11.3,6.8-17.2,4l-79.2-36.1c-4.6-2.5-7.8-7-8.7-12.2c-1-5.2,0.4-10.5,3.6-14.5
			l23.8-29.1c3.4-4.1,8.2-6.5,13.5-6.4c5.2-0.1,10.2,2.2,13.7,6.2l0.1,0.1l51,70.4C194.3,257.5,194.1,264.7,189.9,269.8z
			 M94.8,235.4l79,36c4.8,2.3,10.6,0.9,13.9-3.2c3.4-4.1,3.5-10,0.4-14.3l-50.8-70.4c-2.9-3.3-7.1-5.2-11.5-5.2
			c-4.5,0.1-8.6,2-11.4,5.4l-23.8,29.1c-2.8,3.5-4,7.9-3.1,12.3C88.2,229.4,90.9,233.2,94.8,235.4z"/>
		<path class="st2" d="M200.9,251c-0.9,1.2-2.1,2.3-3.4,3.1c-1.7,1.7-3.6,3-6,3.7l-1.3,0.4l-0.4-1.3c-0.4-1.2-1-2.3-1.6-3.1
			l-50.8-70.4c-2.1-2.5-4.9-4.1-8.1-4.8l-1.9-0.4l1-1.6c6.3-10.2,22.7-21,38.5-25.2l0,0c14.4-3.7,25.7,2.5,29.7,16.2
			C203.8,193.1,213.4,235.8,200.9,251z M191.9,254.7c1.4-0.7,2.7-1.6,3.8-2.7l0.3-0.2c16.7-10.8,4.1-61.9-2.1-83.4
			c-3.6-12.4-13.4-17.8-26.3-14.4c-14.4,3.7-29.3,13.2-35.9,22.3c3.1,1,5.7,2.8,7.8,5.3l0.1,0.1l51,70.4
			C191,252.9,191.5,253.8,191.9,254.7z"/>
		<path class="st2" d="M173.9,284c-5.2,6.3-16.3,10.6-33.1,12.3c-16.9,1.7-36.2,0.8-49.5-0.2c-14.3-1.2-22.6-11.1-21.8-25.8
			c0.9-16.1,7.9-34,16.6-42.4l1.5-1.4l0.8,1.8c1.3,3.1,3.5,5.5,6.3,7.1l79,36c1.2,0.5,2.4,0.9,3.7,1l1.5,0.1l-0.3,1.5
			c-0.4,2.2-1.2,4.2-2.4,6.1C175.7,281.4,175,282.7,173.9,284z M85.8,232.3c-7.1,8.6-12.7,24.2-13.5,38.1
			c-0.8,13.3,6.4,21.9,19.3,22.9c22.2,1.9,74.9,4,82.1-14.5l0.2-0.4c0.8-1.1,1.4-2.4,1.7-3.8c-1.1-0.3-2-0.6-3.1-1l-79.2-36.1
			c-2.8-1.5-5.2-3.9-6.6-6.6C86.4,231.5,86.2,231.9,85.8,232.3z"/>
		<g>
			<path class="st2" d="M131.3,341.4c-3.3,4-8.1,6.4-13.7,6.8c-8.4,0.5-16.4-3.8-20.8-11.2c-7.7-13.2-12.3-27.9-14-43.8l-0.2-2.2
				l2.1,0.8c2.1,0.8,4.4,1.3,7,1.5c17.1,1.4,41.1,2.3,59.1-1.3l2.5-0.5l-19.3,45.4C133.3,338.5,132.5,340.1,131.3,341.4z
				 M85.9,295.1c1.7,14.7,6.3,28.3,13.4,40.5c3.8,6.6,10.9,10.4,18.1,9.9c6.5-0.4,11.7-4.1,14.1-9.8l17.3-40.6
				c-18,3.1-41,2.1-57.3,0.9l0,0C89.5,295.9,87.6,295.5,85.9,295.1z"/>
			<path class="st2" d="M251,195.2c-1.1,1.3-2.4,2.6-4,3.7l-42.8,29.3l0-2.6c-0.3-18.3-5.8-41.1-10.4-57c-1-3.4-2.5-6.3-4.3-8.6
				L188,158l2.4-0.3c17-2.2,34.1-0.6,49.6,4.7c8.2,2.8,14,9.8,15.1,18.1C255.8,185.9,254.3,191.1,251,195.2z M206.9,222.9l38.7-26.4
				c5.1-3.5,7.7-9.4,6.8-15.8c-1.1-7.4-6.1-13.5-13.3-15.9l0,0c-14.4-4.9-30.2-6.5-45.9-4.8c1.5,2.2,2.6,4.8,3.4,7.6
				C200.9,183.1,206.2,204.8,206.9,222.9z"/>
		</g>
	</g>
</g>
</svg>
