<?xml version="1.0" encoding="utf-8"?>
<!-- Generator: Adobe Illustrator 22.1.0, SVG Export Plug-In . SVG Version: 6.00 Build 0)  -->
<svg version="1.1"
	 id="Layer_1" xmlns:cc="http://creativecommons.org/ns#" xmlns:dc="http://purl.org/dc/elements/1.1/" xmlns:rdf="http://www.w3.org/1999/02/22-rdf-syntax-ns#"
	 xmlns="http://www.w3.org/2000/svg" xmlns:xlink="http://www.w3.org/1999/xlink" x="0px" y="0px" viewBox="0 0 500 500"
	 style="enable-background:new 0 0 500 500;" xml:space="preserve">
<style type="text/css">
	.st0{fill:#43A4E8;}
	.st1{fill:none;stroke:#D3FFBB;stroke-miterlimit:10;}
	.st2{fill:#FFFFFF;}
</style>
<circle class="st0" cx="250" cy="251" r="225.9"/>
<title>FLUG</title>
<g>
	<path class="st1" d="M139.6,82.9"/>
</g>
<g>
	<g>
		<path class="st2" d="M149.1,256c0,3.1,2.5,5.7,5.7,5.7h190.5c3.1,0,5.7-2.6,5.7-5.7s-2.5-5.7-5.7-5.7H154.8
			C151.7,250.3,149.1,252.9,149.1,256z"/>
		<path class="st2" d="M93,285.3h-0.4v-54.2c0-3.2-2.5-5.7-5.7-5.7c-3.1,0-5.7,2.6-5.7,5.7v107.6l11.4,0.1v-41.9h46.5v41.9h11.4v-53
			v-0.4H93V285.3z"/>
		<path class="st2" d="M160,266.1h-32l6.6-24.7l2.5,5h35.5v-11.6h-25.5l-6.7-16.1l1.6-6c0.2-0.9,0.3-1.9,0.3-2.8
			c0-7.8-6.3-14.1-14.1-14.1c-6.8,0-12.5,4.9-13.8,11.3l-0.6,2.3l-16.1,59.7c-1.4,5.3,0,12.8,8,12.8h48.7v57h15.4v-62.5
			C170,270.7,165.5,266.1,160,266.1z"/>
		<path class="st2" d="M138,194.3c8.6,0,15.5-6.9,15.5-15.5c0-8.5-6.9-15.5-15.5-15.5c-8.5,0-15.5,6.9-15.5,15.5
			C122.5,187.3,129.4,194.3,138,194.3z"/>
		<path class="st2" d="M213.7,194.2c8.6,0,15.5-6.9,15.5-15.5s-6.9-15.5-15.5-15.5s-15.5,6.9-15.5,15.5
			C198.3,187.3,205.2,194.2,213.7,194.2z"/>
		<path class="st2" d="M194.1,246.4v-25.2h3.5v25.2h32v-25.2h3.7v25.2h11.8v-8v-26.1c0-6.9-5.6-12.5-12.5-12.5h-17.2h-3.3h-17.2
			c-6.9,0-12.5,5.6-12.5,12.5v26.1v8H194.1z"/>
		<path class="st2" d="M205.1,266.1c-4.4,0-8,3.6-8,8v64.6h16.1v-64.6C213.2,269.7,209.6,266.1,205.1,266.1z"/>
		<path class="st2" d="M225,266.1c-4.4,0-8,3.6-8,8v64.6h16.1v-64.6C233.1,269.7,229.5,266.1,225,266.1z"/>
		<path class="st2" d="M413.1,225.4c-3.1,0-5.7,2.6-5.7,5.7v54.2H407h-57.4l-0.1,0.1v53.3h11.4v-41.9h46.5v41.9l11.4-0.1V231.1
			C418.8,227.9,416.3,225.4,413.1,225.4z"/>
		<path class="st2" d="M402.3,268.9l-16.1-59.7l-0.6-2.3c-1.3-6.4-7-11.3-13.8-11.3c-7.8,0-14.1,6.3-14.1,14.1c0,1,0.1,1.9,0.3,2.8
			l1.6,6l-6.7,16.1h-25.4l0.1,11.6h35.5l2.3-5l6.6,24.7h-32c-5.5,0-10,4.6-10,10.1v62.5h15.4v-57h48.7
			C402.3,281.6,403.7,274.1,402.3,268.9z"/>
		<path class="st2" d="M362.4,194.5c8.6,0,15.5-6.9,15.5-15.5s-6.9-15.5-15.5-15.5s-15.5,6.9-15.5,15.5S353.8,194.5,362.4,194.5z"/>
		<path class="st2" d="M287.6,194.4c8.6,0,15.5-6.9,15.5-15.5s-6.9-15.5-15.5-15.5s-15.5,6.9-15.5,15.5
			C272.1,187.4,279.1,194.4,287.6,194.4z"/>
		<path class="st2" d="M267.9,246.4v-25.2h3.7v25.2h32v-25.2h3.5v25.2h11.8v-8v-26.1c0-6.9-5.6-12.5-12.5-12.5h-17.2h-3.3h-17.2
			c-6.9,0-12.5,5.6-12.5,12.5v26.1v8H267.9z"/>
		<path class="st2" d="M297.5,266.1c-4.4,0-8,3.6-8,8v64.6h16.1v-64.6C305.6,269.7,302,266.1,297.5,266.1z"/>
		<path class="st2" d="M277.5,266.1c-4.4,0-8,3.6-8,8v64.6h16.1v-64.6C285.5,269.7,281.9,266.1,277.5,266.1z"/>
	</g>
</g>
</svg>
