<?xml version="1.0" encoding="utf-8"?>
<!-- Generator: Adobe Illustrator 22.1.0, SVG Export Plug-In . SVG Version: 6.00 Build 0)  -->
<svg version="1.1"
	 id="Layer_1" xmlns:cc="http://creativecommons.org/ns#" xmlns:dc="http://purl.org/dc/elements/1.1/" xmlns:rdf="http://www.w3.org/1999/02/22-rdf-syntax-ns#"
	 xmlns="http://www.w3.org/2000/svg" xmlns:xlink="http://www.w3.org/1999/xlink" x="0px" y="0px" viewBox="0 0 500 500"
	 style="enable-background:new 0 0 500 500;" xml:space="preserve">
<style type="text/css">
	.st0{fill:#FCDF2B;}
	.st1{fill:none;stroke:#D3FFBB;stroke-miterlimit:10;}
	.st2{fill:#FFFFFF;}
</style>
<circle class="st0" cx="250" cy="251" r="225.9"/>
<title>FLUG</title>
<g>
	<path class="st1" d="M139.6,82.9"/>
</g>
<g>
	<g>
		<polygon class="st2" points="171.8,112.6 60.6,204 60.4,351.8 114.1,349 113.8,205.7 201.5,133.2 		"/>
	</g>
	<path class="st2" d="M435.9,218.7L321.6,117.1L200.3,218.7l-0.2,141.1c0,0,0,0,7.1,0c9,0,82.8-0.1,82.8-0.1h1.7V284H346v75.5h81
		c9.1,0,9.1,0,9.1,0L435.9,218.7z"/>
	<polygon class="st2" points="421.4,200.6 421.4,167.2 399,167.2 399.1,180.8 	"/>
</g>
<g>
	<polygon class="st2" points="243.2,116.6 132.1,208 131.8,355.8 185.5,353 185.2,209.7 272.9,137.2 	"/>
</g>
</svg>
