<svg id="Layer_1" data-name="Layer 1" xmlns="http://www.w3.org/2000/svg" viewBox="0 0 483.78 483.78"><defs><style>.cls-1{fill:#39b9c1;stroke:#fff;stroke-miterlimit:10;}</style></defs><title>hand</title><path class="cls-1" d="M249.53,9.92C116.22,9.92,8.14,118,8.14,251.31S116.22,492.7,249.53,492.7,490.93,384.63,490.93,251.31,382.85,9.92,249.53,9.92Zm165,382.59c-17.72,8.25-35.57,16.28-53.69,23.6-4,1.62-10.32,1.5-13.9-.63a154.56,154.56,0,0,1-24.59-18.37c-5.79-5.24-10.21-12-15.29-18a83.08,83.08,0,0,0-26.3-20.91,21.5,21.5,0,0,1-7.94-6.83c-4.93-7.39-.5-16.46,8.35-16.91a23.71,23.71,0,0,1,11.21,2.71c12.47,6.23,22.07,16.11,31.66,26a11.32,11.32,0,0,0,4.94,3.36l-8.13-18.35L282,260.45c-.69-1.55-1.43-3.07-2-4.66-2.1-5.81.14-11.39,5.43-13.66a10.24,10.24,0,0,1,13.65,5.47c5.94,13,11.64,26.1,17.43,39.16,2.74,6.19,5.46,12.39,8.24,18.56.71,1.57,1.64,3,2.47,4.55l2-.14c-.74-6.87.12-13.05,7.51-15.05,9.67-2.62,12,5.69,16.27,12,1.25-7.1,1.41-14.55,10.41-15.67s10.8,6.74,14.13,12.76l1.67-1c0-1.72-.11-3.45,0-5.16.38-4.79,2.81-8.19,7.45-9.58a9.63,9.63,0,0,1,11.06,3.55,26.23,26.23,0,0,1,3,5.38q13.42,30.14,26.74,60.33C434,371.81,429.11,385.74,414.58,392.51ZM291.72,149l15.64-15.64,25.25,25.25,25.25-25.25L373.49,149l-25.25,25.25,25.25,25.25-15.64,15.64L332.6,189.91l-25.25,25.25-15.64-15.64L317,174.27ZM437.18,288.4l-11.53-8.77a178.9,178.9,0,0,0,2.26-28.32c0-98.36-80-178.38-178.38-178.38S71.16,153,71.16,251.31s80,178.37,178.38,178.37a178.16,178.16,0,0,0,42.12-5l8.4,11.16,8.33,11.07a204.89,204.89,0,0,1-58.85,8.57A204.14,204.14,0,0,1,105.19,107,204.14,204.14,0,0,1,453.67,251.31a205.78,205.78,0,0,1-5.12,45.74ZM215.29,357.29l-15.64,15.64-25.25-25.25-25.25,25.25-15.64-15.64L158.77,332l-25.25-25.25,15.64-15.64,25.25,25.25,25.25-25.25,15.64,15.64L190,332ZM153.59,216,126.37,188.8l15.56-15.56,11.66,11.66,51.78-51.78,15.56,15.56Z" transform="translate(-7.64 -9.42)"/></svg>