<svg id="AnotherWifi_Image" data-name="AnotherWifi Image" xmlns="http://www.w3.org/2000/svg" viewBox="0 0 487.47 343.08"><defs><style>.cls-1{fill:#fff;}</style></defs><title>AnotherWifiAi02White</title><path class="cls-1" d="M455.27,175.93c-2.17-5.12-3.89-9.59-5.92-13.92-23-49.18-60.59-83.56-110.55-103.12-82.37-32.24-161.47-24.64-235,25.61-32.29,22.06-55.46,52-68.87,89.14-.34.93-.74,1.85-1.13,2.76,0,.12-.27.16-1,.56l-14.19-12.7c-5.34-4.78-10.58-9.67-16-14.31-2.47-2.09-3.23-3.87-2.08-7.23,11-31.75,30.51-57.51,56-78.9C96.69,30.08,143.64,11.56,195.06,3.87c64.11-9.58,126-1.56,184.77,26.2,35.7,16.85,66.38,40.1,88.81,73.17a136.45,136.45,0,0,1,18.62,39.06c.48,1.67.14,4.52-1,5.57C476.29,157.19,466.06,166.23,455.27,175.93Z" transform="translate(-0.01 0)"/><path class="cls-1" d="M397.79,227.6C369.47,164.41,324.51,122.67,254,119.76,174.38,116.48,123.76,160,92.86,231c-8.22-7.41-16.66-14.82-24.74-22.61-.95-.91-.34-4.07.3-5.91,11.55-33.05,31.69-60,59.57-80.86a196.91,196.91,0,0,1,251.19,12.46,163.32,163.32,0,0,1,43.09,64c1.71,4.56.8,7.17-2.77,10.14C412.12,214.41,405.12,221,397.79,227.6Z" transform="translate(-0.01 0)"/><path class="cls-1" d="M144.54,277.45c-6.54-5.88-12.76-11.36-18.77-17-.72-.68-.77-2.76-.32-3.88,21.66-54.77,75.29-94.8,137.28-86.22,37.12,5.14,66.11,24.49,87.88,54.58,5.91,8.16,10.1,17.55,15.18,26.32,1.53,2.63,1.15,4.4-1.21,6.41-5.94,5.06-11.66,10.38-17.38,15.52-5-8.28-9.46-16.5-14.77-24.1-15.35-21.95-35.11-38.46-61.37-45.45-35.89-9.55-66.67,1.15-93.33,25.66-13.16,12.1-22.95,26.74-30.56,42.86C146.38,273.7,145.6,275.28,144.54,277.45Z" transform="translate(-0.01 0)"/><path class="cls-1" d="M286.38,300.32a43,43,0,1,1-42.76-43.24h.12A43,43,0,0,1,286.38,300.32Z" transform="translate(-0.01 0)"/></svg>