<svg id="car" xmlns="http://www.w3.org/2000/svg" width="500" height="500" viewBox="0 0 500 500">
  <metadata><?xpacket begin="﻿" id="W5M0MpCehiHzreSzNTczkc9d"?>
<x:xmpmeta xmlns:x="adobe:ns:meta/" x:xmptk="Adobe XMP Core 5.6-c138 79.159824, 2016/09/14-01:09:01        ">
   <rdf:RDF xmlns:rdf="http://www.w3.org/1999/02/22-rdf-syntax-ns#">
      <rdf:Description rdf:about=""/>
   </rdf:RDF>
</x:xmpmeta>
                                                                                                    
                                                                                                    
                                                                                                    
                                                                                                    
                                                                                                    
                                                                                                    
                                                                                                    
                                                                                                    
                                                                                                    
                                                                                                    
                                                                                                    
                                                                                                    
                                                                                                    
                                                                                                    
                                                                                                    
                                                                                                    
                                                                                                    
                                                                                                    
                                                                                                    
                                                                                                    
                           
<?xpacket end="w"?></metadata>
<defs>
    <style>
      .cls-1, .cls-2 {
        fill: #fff;
      }

      .cls-2 {
        fill-rule: evenodd;
      }
    </style>
  </defs>
  <rect id="parking_line" data-name="parking line" class="cls-1" x="398.438" y="8" width="21.562" height="479" rx="10" ry="10"/>
  <rect id="parking_line_copy" data-name="parking line copy" class="cls-1" x="81" y="8" width="21.562" height="479" rx="10" ry="10"/>
  <path id="car_body" data-name="car body" class="cls-2" d="M159.1,34.479s30.42-22,87.072-22.872c53.486-.824,84.185,22.335,84.185,22.335s16.3,8.908,20.576,58.086c1.274,14.656.776,34.563,4.544,52.014,1.34,6.207,19.455,12,16.618,20.134-2.248,6.445-3.016,10.5-8.067,10.3-7.637-.3-19.764-6.843-19.574-2.033,0.409,10.329,4.935,58.131,4.8,64.576-0.878,41.453-2.512,77.148-.189,112.653,4.93,75.365-24.318,105.868-24.318,105.868s-43.547,21.492-84.176,20.611c-44.036-.955-84.177-24.359-84.177-24.359S127,406.655,137.793,334.176c4.81-32.3,1.581-63.423,3.348-99.551,0.841-17.211,6.779-52.34,5.027-68.908-0.672-6.36-22.258,8.561-22.528,2.088-0.123-2.94-6.243-9.778-2.478-14.6,4.189-5.364,18.327-8.733,18.214-11.954C136.1,47.841,159.1,34.479,159.1,34.479Zm14.223,81.729S207.409,98.416,250.5,98.895c39.282,0.436,70.685,17.313,70.685,17.313l5.77,66.367s-45.524-7.765-81.974-8.384-80.313,8.384-80.313,8.384Zm145.7,294.786s-32.819,19.714-75.988,19.741c-39.354.024-76.926-20.681-76.926-20.681l5.185-67.324s39.912,6.03,76.431,6.223a454.108,454.108,0,0,0,69.667-5.454Z"/>
</svg>
