
<?xml version="1.0" encoding="utf-8"?>
<!-- Generator: Adobe Illustrator 21.1.0, SVG Export Plug-In . SVG Version: 6.00 Build 0)  -->
<svg class="svg" xmlns="http://www.w3.org/2000/svg" x="0px" y="0px"
	 viewBox="0 0 1000 2770.5" xml:space="preserve">
<style type="text/css">

</style>
<g class="planeShape">
	<g class="plane">
		<path class="outline" d="M665.5,2301.6c0,61-89.3,351-199.7,351s-200.2-290-200.3-351v1v-325.5V492.3c0-87.8,90-469,200.5-469
			s199.5,381.2,199.5,469v1484.8v325.5"/>
		<g>
			<polygon class="outline" points="690,1361.6 665.5,1361.6 665.5,882.8 690.5,927.8"/>
			<polygon class="outline" points="241,1361.6 265.5,1361.6 265.5,882.8 240.5,927.8"/>
		</g>
		<g class="window">
			<path class="window" d="M378.4,175.1c-10.9,20.1-23.9,40.2-35.9,63.8c-0.2,0.5-1,0.4-1-0.2l-5-19.4c0-0.1,5-13,5.1-13.2
				c6.1-15.3,12.5-30.1,19.1-44L378.4,175.1z"/>
			<path class="window" d="M464.9,86.3c-19.4,0.5-32.2,16.7-50,36.9l-23.3-16.4c22.7-33.5,47.4-54.9,73.2-55.5L464.9,86.3z"/>
			<path class="window" d="M361.7,160.1c9.1-18.9,18.7-36.3,28.7-51.3l23,16.3c-11.5,13.5-23.6,29.3-34.1,48.5L361.7,160.1z"/>
			<path class="window" d="M553.5,175.1c10.9,20.1,24,41.2,35.9,63.8c0.3,0.5,1,0.4,1-0.2l5.1-19.4c0-0.1-5.2-13.1-5.2-13.2
				c-6.1-15.3-12.5-30.1-19.1-44L553.5,175.1z"/>
			<path class="window" d="M467,86.3c19.4,0.5,32.2,16.7,49.9,36.9l23.3-16.4c-22.7-33.5-47.4-54.9-73.2-55.5V86.3z"/>
			<path class="window" d="M570.2,160.1c-9-18.9-18.5-36.3-28.4-51.3L519,125.1c11.4,13.5,23.4,29.3,33.8,48.5L570.2,160.1z"/>
		</g>
	</g>
	<g class="ArrowFront">
		<g class="exitArror">
			<polyline class="arrow" points="276.5,424.3 260.4,408.3 276.5,392.3"/>
			<polyline class="arrow" points="286.5,424.3 270.4,408.3 286.5,392.3"/>
			<polyline class="arrow" points="296.5,424.3 280.4,408.3 296.5,392.3"/>
		</g>
		<g class="exitArror1">
			<polyline class="arrow" points="654.6,392.2 670.6,408.2 654.6,424.2"/>
			<polyline class="arrow" points="644.6,392.2 660.6,408.2 644.6,424.2"/>
			<polyline class="arrow" points="634.6,392.2 650.6,408.2 634.6,424.2"/>
		</g>
	</g>
	<g class="ArrowBack">
		<g class="exitArror3">
			<polyline class="arrow" points="285.5,2424.7 269.4,2408.7 285.5,2392.7"/>
			<polyline class="arrow" points="295.5,2424.7 279.4,2408.7 295.5,2392.7"/>
			<polyline class="arrow" points="305.5,2424.7 289.4,2408.7 305.5,2392.7"/>
		</g>
		<g class="exitArror">
			<polyline class="arrow" points="644.6,2392.6 660.6,2408.6 644.6,2424.6"/>
			<polyline class="arrow" points="634.6,2392.6 650.6,2408.6 634.6,2424.6"/>
			<polyline class="arrow" points="624.6,2392.6 640.6,2408.6 624.6,2424.6"/>
		</g>
	</g>
	<g class="ArrowMid">
		<g class="exitArror5">
			<polyline class="arrow" points="253.5,1138.3 237.4,1122.3 253.5,1106.3"/>
			<polyline class="arrow" points="263.5,1138.3 247.4,1122.3 263.5,1106.3"/>
			<polyline class="arrow" points="273.5,1138.3 257.4,1122.3 273.5,1106.3"/>
		</g>
		<g class="exitArror4">
			<polyline class="arrow" points="676.6,1106.2 692.6,1122.2 676.6,1138.2"/>
			<polyline class="arrow" points="666.6,1106.2 682.6,1122.2 666.6,1138.2"/>
			<polyline class="arrow" points="656.6,1106.2 672.6,1122.2 656.6,1138.2"/>
		</g>
	</g>
	<g class="ArrowMid1">
		<g class="exitArror7">
			<polyline class="arrow" points="254,1216.7 237.9,1200.7 254,1184.7"/>
			<polyline class="arrow" points="264,1216.7 247.9,1200.7 264,1184.7"/>
			<polyline class="arrow" points="274,1216.7 257.9,1200.7 274,1184.7"/>
		</g>
		<g class="exitArror6">
			<polyline class="arrow" points="677.1,1184.6 693.1,1200.6 677.1,1216.6"/>
			<polyline class="arrow" points="667.1,1184.6 683.1,1200.6 667.1,1216.6"/>
			<polyline class="arrow" points="657.1,1184.6 673.1,1200.6 657.1,1216.6"/>
		</g>
	</g>
	<g class="rowNum">
		<text transform="matrix(1 0 0 1 214.3218 508.8826)" class="rowNum">1</text>
		<text transform="matrix(1 0 0 1 214.3217 575.2715)" class="rowNum">2</text>
		<text transform="matrix(1 0 0 1 214.3217 641.6599)" class="rowNum">3</text>
		<text transform="matrix(1 0 0 1 214.3217 737.6122)" class="rowNum">4</text>
		<text transform="matrix(1 0 0 1 214.3217 797.0009)" class="rowNum">5</text>
		<text transform="matrix(1 0 0 1 217.3998 856.3895)" class="rowNum">6</text>
		<text transform="matrix(1 0 0 1 217.3998 915.7783)" class="rowNum">7</text>
		<text transform="matrix(1 0 0 1 217.3998 975.1669)" class="rowNum">8</text>
		<text transform="matrix(1 0 0 1 217.3998 1034.5557)" class="rowNum">9</text>
		<text transform="matrix(1 0 0 1 211.244 1093.9441)" class="rowNum">10</text>
		<text transform="matrix(1 0 0 1 211.244 1175.3328)" class="rowNum">11</text>
		<text transform="matrix(1 0 0 1 211.244 1248.7216)" class="rowNum">12</text>
		<text transform="matrix(1 0 0 1 211.2439 1308.1106)" class="rowNum">14</text>
		<text transform="matrix(1 0 0 1 211.2443 1367.4993)" class="rowNum">15</text>
		<text transform="matrix(1 0 0 1 211.2443 1426.8876)" class="rowNum">16</text>
		<text transform="matrix(1 0 0 1 211.2441 1486.276)" class="rowNum">17</text>
		<text transform="matrix(1 0 0 1 211.2439 1551.6652)" class="rowNum">18</text>
		<text transform="matrix(1 0 0 1 211.2443 1611.0531)" class="rowNum">19</text>
		<text transform="matrix(1 0 0 1 211.2439 1670.4423)" class="rowNum">20</text>
		<text transform="matrix(1 0 0 1 211.2443 1729.8304)" class="rowNum">21</text>
		<text transform="matrix(1 0 0 1 211.2443 1789.2196)" class="rowNum">22</text>
		<text transform="matrix(1 0 0 1 211.244 1848.6078)" class="rowNum">23</text>
		<text transform="matrix(1 0 0 1 211.2444 1907.9967)" class="rowNum">24</text>
		<text transform="matrix(1 0 0 1 211.2439 1967.3851)" class="rowNum">25</text>
		<text transform="matrix(1 0 0 1 211.2444 2026.7743)" class="rowNum">26</text>
		<text transform="matrix(1 0 0 1 211.2437 2088.4133)" class="rowNum">27</text>
		<text transform="matrix(1 0 0 1 211.2441 2147.8022)" class="rowNum">28</text>
		<text transform="matrix(1 0 0 1 211.2437 2207.1907)" class="rowNum">29</text>
		<text transform="matrix(1 0 0 1 211.2441 2266.5798)" class="rowNum">30</text>
	</g>
	<g class="Amenities">
		<g class="WC3">
			<path class="amenityFill" d="M498.6,2362h149.8c1.4,0,2.6-0.9,3-2.2l9.5-58c0.5-1.9-0.9-3.8-3-3.8H498.6c-1.8,0-3.1,1.3-3.1,3v58
				C495.5,2360.7,496.9,2362,498.6,2362z"/>
			<text transform="matrix(1.0425 0 0 1 564.0273 2334.0234)" class="amenity">WC</text>
		</g>
		<g class="WC2">
			<path class="amenityFill" d="M435.3,2359v-58c0-1.7-1.4-3-3.1-3H272.9c-2.1,0-3.5,1.9-3,3.8l9.5,58c0.4,1.3,1.7,2.2,3,2.2h149.8
			C433.9,2362,435.3,2360.7,435.3,2359z"/>
			<text transform="matrix(1 0 0 1 341.479 2334.0232)" class="amenity">WC</text>
		</g>
		<g class="Galley">
			<path class="amenityFill" d="M449.5,313.3H303.8c-1.4,0-2.6,0.9-2.9,2.3l-14.4,57.9c-0.5,1.9,0.9,3.8,2.9,3.8h160c1.7,0,3-1.3,3-3v-58
				C452.5,314.6,451.2,313.3,449.5,313.3z"/>
			<text transform="matrix(1 0 0 1 355.479 348.3494)" class="amenity">WC</text>
		</g>
		<g class="WC11">
			<path class="amenityFill" d="M479.5,313.3h149.2c0.5,0,0.9,0.3,1,0.8l15.5,62c0.2,0.6-0.3,1.2-1,1.2H479.5c-0.6,0-1-0.4-1-1v-62
				C478.5,313.7,478.9,313.3,479.5,313.3z"/>
			<text transform="matrix(1 0 0 1 550.479 349.3494)" class="amenity">Galley</text>
		</g>
		<g class="WC21">
			<path class="amenityFill" d="M615,2459c1.6,0,2.7,1.5,2,2.8c-27.5,52.7-68.3,125.9-151,125.9c-82.7,0-128.6-76-151.2-126
			c-0.6-1.3,0.5-2.7,2.1-2.7H615z"/>
			<text transform="matrix(1 0 0 1 450.0353 2508.0884)" class="amenity">Galley</text>
		</g>
	</g>
</g>
<g class="seats">
	<g class="Economy">
		<g data-seat-id="4A" data-cabinClass="economy"  class="economy seat">
			<path class="" d="M314.6,751.2h-24.8c-6.3,0-11.5-5.4-11.5-11.9v-27.5c0-4.4,3.4-7.9,7.6-7.9h32.5c4.2,0,7.6,3.6,7.6,7.9v27.5
				C326,745.9,320.9,751.2,314.6,751.2z"/>
			<path class="" d="M309.4,744.3h-14.7c-6.3,0-11.5-5.4-11.5-11.9v-21.6c0-4.4,3.4-7.9,7.6-7.9h22.3c4.2,0,7.6,3.6,7.6,7.9v21.6
				C320.9,738.9,315.7,744.3,309.4,744.3z"/>
		</g>
		<g data-seat-id="4B" data-cabinClass="economy" class="economy seat">
			<path class="" d="M372.3,751.2h-24.8c-6.3,0-11.5-5.4-11.5-11.9v-27.5c0-4.4,3.4-7.9,7.6-7.9h32.5c4.2,0,7.6,3.6,7.6,7.9v27.5
				C383.7,745.9,378.6,751.2,372.3,751.2z"/>
			<path class="" d="M367.1,744.3h-14.7c-6.3,0-11.5-5.4-11.5-11.9v-21.6c0-4.4,3.4-7.9,7.6-7.9h22.4c4.2,0,7.6,3.6,7.6,7.9v21.6
				C378.6,738.9,373.4,744.3,367.1,744.3z"/>
		</g>
		<g data-seat-id="4C" data-cabinClass="economy" class="economy seat">
			<path class="" d="M430,751.2h-24.8c-6.3,0-11.5-5.4-11.5-11.9v-27.5c0-4.4,3.4-7.9,7.6-7.9h32.5c4.2,0,7.6,3.6,7.6,7.9v27.5
				C441.5,745.9,436.3,751.2,430,751.2z"/>
			<path class="" d="M424.9,744.3h-14.7c-6.3,0-11.5-5.4-11.5-11.9v-21.6c0-4.4,3.4-7.9,7.6-7.9h22.3c4.2,0,7.6,3.6,7.6,7.9v21.6
				C436.3,738.9,431.2,744.3,424.9,744.3z"/>
		</g>
		<g data-seat-id="4D" data-cabinClass="economy" class="economy seat">
			<path class="" d="M525.7,751.2h-24.8c-6.3,0-11.5-5.4-11.5-11.9v-27.5c0-4.4,3.4-7.9,7.6-7.9h32.5c4.2,0,7.6,3.6,7.6,7.9v27.5
				C537.1,745.9,532,751.2,525.7,751.2z"/>
			<path class="" d="M520.5,744.3h-14.7c-6.3,0-11.5-5.4-11.5-11.9v-21.6c0-4.4,3.4-7.9,7.6-7.9h22.3c4.2,0,7.6,3.6,7.6,7.9v21.6
				C532,738.9,526.8,744.3,520.5,744.3z"/>
		</g>
		<g data-seat-id="4E" data-cabinClass="economy" class="economy seat">
			<path class="" d="M583.4,751.2h-24.8c-6.3,0-11.5-5.4-11.5-11.9v-27.5c0-4.4,3.4-7.9,7.6-7.9h32.5c4.2,0,7.6,3.6,7.6,7.9v27.5
				C594.8,745.9,589.7,751.2,583.4,751.2z"/>
			<path class="" d="M578.2,744.3h-14.7c-6.3,0-11.5-5.4-11.5-11.9v-21.6c0-4.4,3.4-7.9,7.6-7.9H582c4.2,0,7.6,3.6,7.6,7.9v21.6
				C589.7,738.9,584.5,744.3,578.2,744.3z"/>
		</g>
		<g data-seat-id="4F" data-cabinClass="economy" class="economy seat">
			<path class="" d="M641.1,751.2h-24.8c-6.3,0-11.5-5.4-11.5-11.9v-27.5c0-4.4,3.4-7.9,7.6-7.9h32.5c4.2,0,7.6,3.6,7.6,7.9v27.5
				C652.6,745.9,647.4,751.2,641.1,751.2z"/>
			<path class="" d="M636,744.3h-14.7c-6.3,0-11.5-5.4-11.5-11.9v-21.6c0-4.4,3.4-7.9,7.6-7.9h22.3c4.2,0,7.6,3.6,7.6,7.9v21.6
				C647.4,738.9,642.3,744.3,636,744.3z"/>
		</g>
		<g data-seat-id="5A" data-cabinClass="economy" class="economy seat">
			<path class="" d="M314.6,811.6h-24.8c-6.3,0-11.5-5.4-11.5-11.9v-27.5c0-4.4,3.4-7.9,7.6-7.9h32.5c4.2,0,7.6,3.6,7.6,7.9v27.5
				C326,806.2,320.9,811.6,314.6,811.6z"/>
			<path class="" d="M309.4,804.6h-14.7c-6.3,0-11.5-5.4-11.5-11.9v-21.6c0-4.4,3.4-7.9,7.6-7.9h22.3c4.2,0,7.6,3.6,7.6,7.9v21.6
				C320.9,799.3,315.7,804.6,309.4,804.6z"/>
		</g>
		<g data-seat-id="5B" data-cabinClass="economy" class="economy seat">
			<path class="" d="M372.3,811.6h-24.8c-6.3,0-11.5-5.4-11.5-11.9v-27.5c0-4.4,3.4-7.9,7.6-7.9h32.5c4.2,0,7.6,3.6,7.6,7.9v27.5
				C383.7,806.2,378.6,811.6,372.3,811.6z"/>
			<path class="" d="M367.1,804.6h-14.7c-6.3,0-11.5-5.4-11.5-11.9v-21.6c0-4.4,3.4-7.9,7.6-7.9h22.4c4.2,0,7.6,3.6,7.6,7.9v21.6
				C378.6,799.3,373.4,804.6,367.1,804.6z"/>
		</g>
		<g data-seat-id="5C" data-cabinClass="economy" class="economy seat">
			<path class="" d="M430,811.6h-24.8c-6.3,0-11.5-5.4-11.5-11.9v-27.5c0-4.4,3.4-7.9,7.6-7.9h32.5c4.2,0,7.6,3.6,7.6,7.9v27.5
				C441.5,806.2,436.3,811.6,430,811.6z"/>
			<path class="" d="M424.9,804.6h-14.7c-6.3,0-11.5-5.4-11.5-11.9v-21.6c0-4.4,3.4-7.9,7.6-7.9h22.3c4.2,0,7.6,3.6,7.6,7.9v21.6
				C436.3,799.3,431.2,804.6,424.9,804.6z"/>
		</g>
		<g data-seat-id="5D" data-cabinClass="economy" class="economy seat">
			<path class="" d="M525.7,811.6h-24.8c-6.3,0-11.5-5.4-11.5-11.9v-27.5c0-4.4,3.4-7.9,7.6-7.9h32.5c4.2,0,7.6,3.6,7.6,7.9v27.5
				C537.1,806.2,532,811.6,525.7,811.6z"/>
			<path class="" d="M520.5,804.6h-14.7c-6.3,0-11.5-5.4-11.5-11.9v-21.6c0-4.4,3.4-7.9,7.6-7.9h22.3c4.2,0,7.6,3.6,7.6,7.9v21.6
				C532,799.3,526.8,804.6,520.5,804.6z"/>
		</g>
		<g data-seat-id="5E" data-cabinClass="economy" class="economy seat">
			<path class="" d="M583.4,811.6h-24.8c-6.3,0-11.5-5.4-11.5-11.9v-27.5c0-4.4,3.4-7.9,7.6-7.9h32.5c4.2,0,7.6,3.6,7.6,7.9v27.5
				C594.8,806.2,589.7,811.6,583.4,811.6z"/>
			<path class="" d="M578.2,804.6h-14.7c-6.3,0-11.5-5.4-11.5-11.9v-21.6c0-4.4,3.4-7.9,7.6-7.9H582c4.2,0,7.6,3.6,7.6,7.9v21.6
				C589.7,799.3,584.5,804.6,578.2,804.6z"/>
		</g>
		<g data-seat-id="5F" data-cabinClass="economy" class="economy seat">
			<path class="" d="M641.1,811.6h-24.8c-6.3,0-11.5-5.4-11.5-11.9v-27.5c0-4.4,3.4-7.9,7.6-7.9h32.5c4.2,0,7.6,3.6,7.6,7.9v27.5
				C652.6,806.2,647.4,811.6,641.1,811.6z"/>
			<path class="" d="M636,804.6h-14.7c-6.3,0-11.5-5.4-11.5-11.9v-21.6c0-4.4,3.4-7.9,7.6-7.9h22.3c4.2,0,7.6,3.6,7.6,7.9v21.6
				C647.4,799.3,642.3,804.6,636,804.6z"/>
		</g>
		<g data-seat-id="6A" data-cabinClass="economy" class="economy seat">
			<path class="" d="M314.6,871.9h-24.8c-6.3,0-11.5-5.4-11.5-11.9v-27.5c0-4.4,3.4-7.9,7.6-7.9h32.5c4.2,0,7.6,3.6,7.6,7.9V860
				C326,866.6,320.9,871.9,314.6,871.9z"/>
			<path class="" d="M309.4,865h-14.7c-6.3,0-11.5-5.4-11.5-11.9v-21.6c0-4.4,3.4-7.9,7.6-7.9h22.3c4.2,0,7.6,3.6,7.6,7.9v21.6
				C320.9,859.6,315.7,865,309.4,865z"/>
		</g>
		<g data-seat-id="6B" data-cabinClass="economy" class="economy seat">
			<path class="" d="M372.3,871.9h-24.8c-6.3,0-11.5-5.4-11.5-11.9v-27.5c0-4.4,3.4-7.9,7.6-7.9h32.5c4.2,0,7.6,3.6,7.6,7.9V860
				C383.7,866.6,378.6,871.9,372.3,871.9z"/>
			<path class="" d="M367.1,865h-14.7c-6.3,0-11.5-5.4-11.5-11.9v-21.6c0-4.4,3.4-7.9,7.6-7.9h22.4c4.2,0,7.6,3.6,7.6,7.9v21.6
				C378.6,859.6,373.4,865,367.1,865z"/>
		</g>
		<g data-seat-id="6C" data-cabinClass="economy" class="economy seat">
			<path class="" d="M430,871.9h-24.8c-6.3,0-11.5-5.4-11.5-11.9v-27.5c0-4.4,3.4-7.9,7.6-7.9h32.5c4.2,0,7.6,3.6,7.6,7.9V860
				C441.5,866.6,436.3,871.9,430,871.9z"/>
			<path class="" d="M424.9,865h-14.7c-6.3,0-11.5-5.4-11.5-11.9v-21.6c0-4.4,3.4-7.9,7.6-7.9h22.3c4.2,0,7.6,3.6,7.6,7.9v21.6
				C436.3,859.6,431.2,865,424.9,865z"/>
		</g>
		<g data-seat-id="6D" data-cabinClass="economy" class="economy seat">
			<path class="" d="M525.7,871.9h-24.8c-6.3,0-11.5-5.4-11.5-11.9v-27.5c0-4.4,3.4-7.9,7.6-7.9h32.5c4.2,0,7.6,3.6,7.6,7.9V860
				C537.1,866.6,532,871.9,525.7,871.9z"/>
			<path class="" d="M520.5,865h-14.7c-6.3,0-11.5-5.4-11.5-11.9v-21.6c0-4.4,3.4-7.9,7.6-7.9h22.3c4.2,0,7.6,3.6,7.6,7.9v21.6
				C532,859.6,526.8,865,520.5,865z"/>
		</g>
		<g data-seat-id="6E" data-cabinClass="economy" class="economy seat">
			<path class="" d="M583.4,871.9h-24.8c-6.3,0-11.5-5.4-11.5-11.9v-27.5c0-4.4,3.4-7.9,7.6-7.9h32.5c4.2,0,7.6,3.6,7.6,7.9V860
				C594.8,866.6,589.7,871.9,583.4,871.9z"/>
			<path class="" d="M578.2,865h-14.7c-6.3,0-11.5-5.4-11.5-11.9v-21.6c0-4.4,3.4-7.9,7.6-7.9H582c4.2,0,7.6,3.6,7.6,7.9v21.6
				C589.7,859.6,584.5,865,578.2,865z"/>
		</g>
		<g data-seat-id="6F" data-cabinClass="economy" class="economy seat">
			<path class="" d="M641.1,871.9h-24.8c-6.3,0-11.5-5.4-11.5-11.9v-27.5c0-4.4,3.4-7.9,7.6-7.9h32.5c4.2,0,7.6,3.6,7.6,7.9V860
				C652.6,866.6,647.4,871.9,641.1,871.9z"/>
			<path class="" d="M636,865h-14.7c-6.3,0-11.5-5.4-11.5-11.9v-21.6c0-4.4,3.4-7.9,7.6-7.9h22.3c4.2,0,7.6,3.6,7.6,7.9v21.6
				C647.4,859.6,642.3,865,636,865z"/>
		</g>
		<g data-seat-id="7A" data-cabinClass="economy" class="economy seat">
			<path class="" d="M314.6,932.2h-24.8c-6.3,0-11.5-5.4-11.5-11.9v-27.5c0-4.4,3.4-7.9,7.6-7.9h32.5c4.2,0,7.6,3.6,7.6,7.9v27.5
				C326,926.8,320.9,932.2,314.6,932.2z"/>
			<path class="" d="M309.4,925.3h-14.7c-6.3,0-11.5-5.4-11.5-11.9v-21.6c0-4.4,3.4-7.9,7.6-7.9h22.3c4.2,0,7.6,3.6,7.6,7.9v21.6
				C320.9,919.9,315.7,925.3,309.4,925.3z"/>
		</g>
		<g data-seat-id="7B" data-cabinClass="economy" class="economy seat">
			<path class="" d="M372.3,932.2h-24.8c-6.3,0-11.5-5.4-11.5-11.9v-27.5c0-4.4,3.4-7.9,7.6-7.9h32.5c4.2,0,7.6,3.6,7.6,7.9v27.5
				C383.7,926.8,378.6,932.2,372.3,932.2z"/>
			<path class="" d="M367.1,925.3h-14.7c-6.3,0-11.5-5.4-11.5-11.9v-21.6c0-4.4,3.4-7.9,7.6-7.9h22.4c4.2,0,7.6,3.6,7.6,7.9v21.6
				C378.6,919.9,373.4,925.3,367.1,925.3z"/>
		</g>
		<g data-seat-id="7C" data-cabinClass="economy" class="economy seat">
			<path class="" d="M430,932.2h-24.8c-6.3,0-11.5-5.4-11.5-11.9v-27.5c0-4.4,3.4-7.9,7.6-7.9h32.5c4.2,0,7.6,3.6,7.6,7.9v27.5
				C441.5,926.8,436.3,932.2,430,932.2z"/>
			<path class="" d="M424.9,925.3h-14.7c-6.3,0-11.5-5.4-11.5-11.9v-21.6c0-4.4,3.4-7.9,7.6-7.9h22.3c4.2,0,7.6,3.6,7.6,7.9v21.6
				C436.3,919.9,431.2,925.3,424.9,925.3z"/>
		</g>
		<g data-seat-id="7D" data-cabinClass="economy" class="economy seat">
			<path class="" d="M525.7,932.2h-24.8c-6.3,0-11.5-5.4-11.5-11.9v-27.5c0-4.4,3.4-7.9,7.6-7.9h32.5c4.2,0,7.6,3.6,7.6,7.9v27.5
				C537.1,926.8,532,932.2,525.7,932.2z"/>
			<path class="" d="M520.5,925.3h-14.7c-6.3,0-11.5-5.4-11.5-11.9v-21.6c0-4.4,3.4-7.9,7.6-7.9h22.3c4.2,0,7.6,3.6,7.6,7.9v21.6
				C532,919.9,526.8,925.3,520.5,925.3z"/>
		</g>
		<g data-seat-id="7E" data-cabinClass="economy" class="economy seat">
			<path class="" d="M583.4,932.2h-24.8c-6.3,0-11.5-5.4-11.5-11.9v-27.5c0-4.4,3.4-7.9,7.6-7.9h32.5c4.2,0,7.6,3.6,7.6,7.9v27.5
				C594.8,926.8,589.7,932.2,583.4,932.2z"/>
			<path class="" d="M578.2,925.3h-14.7c-6.3,0-11.5-5.4-11.5-11.9v-21.6c0-4.4,3.4-7.9,7.6-7.9H582c4.2,0,7.6,3.6,7.6,7.9v21.6
				C589.7,919.9,584.5,925.3,578.2,925.3z"/>
		</g>
		<g data-seat-id="7F" data-cabinClass="economy" class="economy seat">
			<path class="" d="M641.1,932.2h-24.8c-6.3,0-11.5-5.4-11.5-11.9v-27.5c0-4.4,3.4-7.9,7.6-7.9h32.5c4.2,0,7.6,3.6,7.6,7.9v27.5
				C652.6,926.8,647.4,932.2,641.1,932.2z"/>
			<path class="" d="M636,925.3h-14.7c-6.3,0-11.5-5.4-11.5-11.9v-21.6c0-4.4,3.4-7.9,7.6-7.9h22.3c4.2,0,7.6,3.6,7.6,7.9v21.6
				C647.4,919.9,642.3,925.3,636,925.3z"/>
		</g>
		<g data-seat-id="8A" data-cabinClass="economy" class="economy seat">
			<path class="" d="M314.6,992.5h-24.8c-6.3,0-11.5-5.4-11.5-11.9v-27.5c0-4.4,3.4-7.9,7.6-7.9h32.5c4.2,0,7.6,3.6,7.6,7.9v27.5
				C326,987.2,320.9,992.5,314.6,992.5z"/>
			<path class="" d="M309.4,985.6h-14.7c-6.3,0-11.5-5.4-11.5-11.9v-21.6c0-4.4,3.4-7.9,7.6-7.9h22.3c4.2,0,7.6,3.6,7.6,7.9v21.6
				C320.9,980.3,315.7,985.6,309.4,985.6z"/>
		</g>
		<g data-seat-id="8B" data-cabinClass="economy" class="economy seat">
			<path class="" d="M372.3,992.5h-24.8c-6.3,0-11.5-5.4-11.5-11.9v-27.5c0-4.4,3.4-7.9,7.6-7.9h32.5c4.2,0,7.6,3.6,7.6,7.9v27.5
				C383.7,987.2,378.6,992.5,372.3,992.5z"/>
			<path class="" d="M367.1,985.6h-14.7c-6.3,0-11.5-5.4-11.5-11.9v-21.6c0-4.4,3.4-7.9,7.6-7.9h22.4c4.2,0,7.6,3.6,7.6,7.9v21.6
				C378.6,980.3,373.4,985.6,367.1,985.6z"/>
		</g>
		<g data-seat-id="8C" data-cabinClass="economy" class="economy seat">
			<path class="" d="M430,992.5h-24.8c-6.3,0-11.5-5.4-11.5-11.9v-27.5c0-4.4,3.4-7.9,7.6-7.9h32.5c4.2,0,7.6,3.6,7.6,7.9v27.5
				C441.5,987.2,436.3,992.5,430,992.5z"/>
			<path class="" d="M424.9,985.6h-14.7c-6.3,0-11.5-5.4-11.5-11.9v-21.6c0-4.4,3.4-7.9,7.6-7.9h22.3c4.2,0,7.6,3.6,7.6,7.9v21.6
				C436.3,980.3,431.2,985.6,424.9,985.6z"/>
		</g>
		<g data-seat-id="8D" data-cabinClass="economy" class="economy seat">
			<path class="" d="M525.7,992.5h-24.8c-6.3,0-11.5-5.4-11.5-11.9v-27.5c0-4.4,3.4-7.9,7.6-7.9h32.5c4.2,0,7.6,3.6,7.6,7.9v27.5
				C537.1,987.2,532,992.5,525.7,992.5z"/>
			<path class="" d="M520.5,985.6h-14.7c-6.3,0-11.5-5.4-11.5-11.9v-21.6c0-4.4,3.4-7.9,7.6-7.9h22.3c4.2,0,7.6,3.6,7.6,7.9v21.6
				C532,980.3,526.8,985.6,520.5,985.6z"/>
		</g>
		<g data-seat-id="8E" data-cabinClass="economy" class="economy seat">
			<path class="" d="M583.4,992.5h-24.8c-6.3,0-11.5-5.4-11.5-11.9v-27.5c0-4.4,3.4-7.9,7.6-7.9h32.5c4.2,0,7.6,3.6,7.6,7.9v27.5
				C594.8,987.2,589.7,992.5,583.4,992.5z"/>
			<path class="" d="M578.2,985.6h-14.7c-6.3,0-11.5-5.4-11.5-11.9v-21.6c0-4.4,3.4-7.9,7.6-7.9H582c4.2,0,7.6,3.6,7.6,7.9v21.6
				C589.7,980.3,584.5,985.6,578.2,985.6z"/>
		</g>
		<g data-seat-id="8F" data-cabinClass="economy" class="economy seat">
			<path class="" d="M641.1,992.5h-24.8c-6.3,0-11.5-5.4-11.5-11.9v-27.5c0-4.4,3.4-7.9,7.6-7.9h32.5c4.2,0,7.6,3.6,7.6,7.9v27.5
				C652.6,987.2,647.4,992.5,641.1,992.5z"/>
			<path class="" d="M636,985.6h-14.7c-6.3,0-11.5-5.4-11.5-11.9v-21.6c0-4.4,3.4-7.9,7.6-7.9h22.3c4.2,0,7.6,3.6,7.6,7.9v21.6
				C647.4,980.3,642.3,985.6,636,985.6z"/>
		</g>
		<g data-seat-id="9A" data-cabinClass="economy" class="economy seat">
			<path class="" d="M314.6,1052.8h-24.8c-6.3,0-11.5-5.4-11.5-11.9v-27.5c0-4.4,3.4-7.9,7.6-7.9h32.5c4.2,0,7.6,3.6,7.6,7.9
				v27.5C326,1047.4,320.9,1052.8,314.6,1052.8z"/>
			<path class="" d="M309.4,1045.9h-14.7c-6.3,0-11.5-5.4-11.5-11.9v-21.6c0-4.4,3.4-7.9,7.6-7.9h22.3c4.2,0,7.6,3.6,7.6,7.9
				v21.6C320.9,1040.5,315.7,1045.9,309.4,1045.9z"/>
		</g>
		<g data-seat-id="9B" data-cabinClass="economy" class="economy seat">
			<path class="" d="M372.3,1052.8h-24.8c-6.3,0-11.5-5.4-11.5-11.9v-27.5c0-4.4,3.4-7.9,7.6-7.9h32.5c4.2,0,7.6,3.6,7.6,7.9
				v27.5C383.7,1047.4,378.6,1052.8,372.3,1052.8z"/>
			<path class="" d="M367.1,1045.9h-14.7c-6.3,0-11.5-5.4-11.5-11.9v-21.6c0-4.4,3.4-7.9,7.6-7.9h22.4c4.2,0,7.6,3.6,7.6,7.9
				v21.6C378.6,1040.5,373.4,1045.9,367.1,1045.9z"/>
		</g>
		<g data-seat-id="9C" data-cabinClass="economy" class="economy seat">
			<path class="" d="M430,1052.8h-24.8c-6.3,0-11.5-5.4-11.5-11.9v-27.5c0-4.4,3.4-7.9,7.6-7.9h32.5c4.2,0,7.6,3.6,7.6,7.9v27.5
				C441.5,1047.4,436.3,1052.8,430,1052.8z"/>
			<path class="" d="M424.9,1045.9h-14.7c-6.3,0-11.5-5.4-11.5-11.9v-21.6c0-4.4,3.4-7.9,7.6-7.9h22.3c4.2,0,7.6,3.6,7.6,7.9
				v21.6C436.3,1040.5,431.2,1045.9,424.9,1045.9z"/>
		</g>
		<g data-seat-id="9D" data-cabinClass="economy" class="economy seat">
			<path class="" d="M525.7,1052.8h-24.8c-6.3,0-11.5-5.4-11.5-11.9v-27.5c0-4.4,3.4-7.9,7.6-7.9h32.5c4.2,0,7.6,3.6,7.6,7.9
				v27.5C537.1,1047.4,532,1052.8,525.7,1052.8z"/>
			<path class="" d="M520.5,1045.9h-14.7c-6.3,0-11.5-5.4-11.5-11.9v-21.6c0-4.4,3.4-7.9,7.6-7.9h22.3c4.2,0,7.6,3.6,7.6,7.9
				v21.6C532,1040.5,526.8,1045.9,520.5,1045.9z"/>
		</g>
		<g data-seat-id="9E" data-cabinClass="economy" class="economy seat">
			<path class="" d="M583.4,1052.8h-24.8c-6.3,0-11.5-5.4-11.5-11.9v-27.5c0-4.4,3.4-7.9,7.6-7.9h32.5c4.2,0,7.6,3.6,7.6,7.9
				v27.5C594.8,1047.4,589.7,1052.8,583.4,1052.8z"/>
			<path class="" d="M578.2,1045.9h-14.7c-6.3,0-11.5-5.4-11.5-11.9v-21.6c0-4.4,3.4-7.9,7.6-7.9H582c4.2,0,7.6,3.6,7.6,7.9v21.6
				C589.7,1040.5,584.5,1045.9,578.2,1045.9z"/>
		</g>
		<g data-seat-id="9F" data-cabinClass="economy" class="economy seat">
			<path class="" d="M641.1,1052.8h-24.8c-6.3,0-11.5-5.4-11.5-11.9v-27.5c0-4.4,3.4-7.9,7.6-7.9h32.5c4.2,0,7.6,3.6,7.6,7.9
				v27.5C652.6,1047.4,647.4,1052.8,641.1,1052.8z"/>
			<path class="" d="M636,1045.9h-14.7c-6.3,0-11.5-5.4-11.5-11.9v-21.6c0-4.4,3.4-7.9,7.6-7.9h22.3c4.2,0,7.6,3.6,7.6,7.9v21.6
				C647.4,1040.5,642.3,1045.9,636,1045.9z"/>
		</g>
		<g data-seat-id="10A" data-cabinClass="economy" class="economy seat">
			<path class="" d="M314.6,1113.2h-24.8c-6.3,0-11.5-5.4-11.5-11.9v-27.5c0-4.4,3.4-7.9,7.6-7.9h32.5c4.2,0,7.6,3.6,7.6,7.9
				v27.5C326,1107.8,320.9,1113.2,314.6,1113.2z"/>
			<path class="" d="M309.4,1106.2h-14.7c-6.3,0-11.5-5.4-11.5-11.9v-21.6c0-4.4,3.4-7.9,7.6-7.9h22.4c4.2,0,7.6,3.6,7.6,7.9
				v21.6C320.9,1100.9,315.7,1106.2,309.4,1106.2z"/>
		</g>
		<g data-seat-id="10B" data-cabinClass="economy" class="economy seat">
			<path class="" d="M372.3,1113.2h-24.8c-6.3,0-11.5-5.4-11.5-11.9v-27.5c0-4.4,3.4-7.9,7.6-7.9h32.5c4.2,0,7.6,3.6,7.6,7.9
				v27.5C383.8,1107.8,378.6,1113.2,372.3,1113.2z"/>
			<path class="" d="M367.2,1106.2h-14.7c-6.3,0-11.5-5.4-11.5-11.9v-21.6c0-4.4,3.4-7.9,7.6-7.9h22.3c4.2,0,7.6,3.6,7.6,7.9
				v21.6C378.6,1100.9,373.5,1106.2,367.2,1106.2z"/>
		</g>
		<g data-seat-id="10C" data-cabinClass="economy" class="economy seat">
			<path class="" d="M430,1113.2h-24.8c-6.3,0-11.5-5.4-11.5-11.9v-27.5c0-4.4,3.4-7.9,7.6-7.9h32.5c4.2,0,7.6,3.6,7.6,7.9v27.5
				C441.5,1107.8,436.3,1113.2,430,1113.2z"/>
			<path class="" d="M424.9,1106.2h-14.7c-6.3,0-11.5-5.4-11.5-11.9v-21.6c0-4.4,3.4-7.9,7.6-7.9h22.3c4.2,0,7.6,3.6,7.6,7.9
				v21.6C436.3,1100.9,431.2,1106.2,424.9,1106.2z"/>
		</g>
		<g data-seat-id="10D" data-cabinClass="economy" class="economy seat">
			<path class="" d="M525.7,1113.2h-24.8c-6.3,0-11.5-5.4-11.5-11.9v-27.5c0-4.4,3.4-7.9,7.6-7.9h32.5c4.2,0,7.6,3.6,7.6,7.9
				v27.5C537.2,1107.8,532,1113.2,525.7,1113.2z"/>
			<path class="" d="M520.6,1106.2h-14.7c-6.3,0-11.5-5.4-11.5-11.9v-21.6c0-4.4,3.4-7.9,7.6-7.9h22.3c4.2,0,7.6,3.6,7.6,7.9
				v21.6C532,1100.9,526.9,1106.2,520.6,1106.2z"/>
		</g>
		<g data-seat-id="10E" data-cabinClass="economy" class="economy seat">
			<path class="" d="M583.4,1113.2h-24.8c-6.3,0-11.5-5.4-11.5-11.9v-27.5c0-4.4,3.4-7.9,7.6-7.9h32.5c4.2,0,7.6,3.6,7.6,7.9
				v27.5C594.9,1107.8,589.7,1113.2,583.4,1113.2z"/>
			<path class="" d="M578.3,1106.2h-14.7c-6.3,0-11.5-5.4-11.5-11.9v-21.6c0-4.4,3.4-7.9,7.6-7.9H582c4.2,0,7.6,3.6,7.6,7.9v21.6
				C589.7,1100.9,584.6,1106.2,578.3,1106.2z"/>
		</g>
		<g data-seat-id="10F" data-cabinClass="economy" class="economy seat">
			<path class="" d="M641.1,1113.2h-24.8c-6.3,0-11.5-5.4-11.5-11.9v-27.5c0-4.4,3.4-7.9,7.6-7.9h32.5c4.2,0,7.6,3.6,7.6,7.9
				v27.5C652.6,1107.8,647.4,1113.2,641.1,1113.2z"/>
			<path class="" d="M636,1106.2h-14.7c-6.3,0-11.5-5.4-11.5-11.9v-21.6c0-4.4,3.4-7.9,7.6-7.9h22.3c4.2,0,7.6,3.6,7.6,7.9v21.6
				C647.4,1100.9,642.3,1106.2,636,1106.2z"/>
		</g>
		<g data-seat-id="11A" data-cabinClass="economy" class="economy seat">
			<path class="" d="M314.6,1189.5h-24.8c-6.3,0-11.5-5.4-11.5-11.9v-27.5c0-4.4,3.4-7.9,7.6-7.9h32.5c4.2,0,7.6,3.6,7.6,7.9
				v27.5C326,1184.2,320.9,1189.5,314.6,1189.5z"/>
			<path class="" d="M309.4,1182.6h-14.7c-6.3,0-11.5-5.4-11.5-11.9v-21.6c0-4.4,3.4-7.9,7.6-7.9h22.3c4.2,0,7.6,3.6,7.6,7.9
				v21.6C320.9,1177.2,315.7,1182.6,309.4,1182.6z"/>
		</g>
		<g data-seat-id="11B" data-cabinClass="economy" class="economy seat">
			<path class="" d="M372.3,1189.5h-24.8c-6.3,0-11.5-5.4-11.5-11.9v-27.5c0-4.4,3.4-7.9,7.6-7.9h32.5c4.2,0,7.6,3.6,7.6,7.9
				v27.5C383.7,1184.2,378.6,1189.5,372.3,1189.5z"/>
			<path class="" d="M367.1,1182.6h-14.7c-6.3,0-11.5-5.4-11.5-11.9v-21.6c0-4.4,3.4-7.9,7.6-7.9h22.4c4.2,0,7.6,3.6,7.6,7.9
				v21.6C378.6,1177.2,373.4,1182.6,367.1,1182.6z"/>
		</g>
		<g data-seat-id="11C" data-cabinClass="economy" class="economy seat">
			<path class="" d="M430,1189.5h-24.8c-6.3,0-11.5-5.4-11.5-11.9v-27.5c0-4.4,3.4-7.9,7.6-7.9h32.5c4.2,0,7.6,3.6,7.6,7.9v27.5
				C441.5,1184.2,436.3,1189.5,430,1189.5z"/>
			<path class="" d="M424.9,1182.6h-14.7c-6.3,0-11.5-5.4-11.5-11.9v-21.6c0-4.4,3.4-7.9,7.6-7.9h22.3c4.2,0,7.6,3.6,7.6,7.9
				v21.6C436.3,1177.2,431.2,1182.6,424.9,1182.6z"/>
		</g>
		<g data-seat-id="11D" data-cabinClass="economy" class="economy seat">
			<path class="" d="M525.7,1189.5h-24.8c-6.3,0-11.5-5.4-11.5-11.9v-27.5c0-4.4,3.4-7.9,7.6-7.9h32.5c4.2,0,7.6,3.6,7.6,7.9
				v27.5C537.2,1184.2,532,1189.5,525.7,1189.5z"/>
			<path class="" d="M520.6,1182.6h-14.7c-6.3,0-11.5-5.4-11.5-11.9v-21.6c0-4.4,3.4-7.9,7.6-7.9h22.3c4.2,0,7.6,3.6,7.6,7.9
				v21.6C532,1177.2,526.9,1182.6,520.6,1182.6z"/>
		</g>
		<g data-seat-id="11E" data-cabinClass="economy" class="economy seat">
			<path class="" d="M583.4,1189.5h-24.8c-6.3,0-11.5-5.4-11.5-11.9v-27.5c0-4.4,3.4-7.9,7.6-7.9h32.5c4.2,0,7.6,3.6,7.6,7.9
				v27.5C594.9,1184.2,589.7,1189.5,583.4,1189.5z"/>
			<path class="" d="M578.3,1182.6h-14.7c-6.3,0-11.5-5.4-11.5-11.9v-21.6c0-4.4,3.4-7.9,7.6-7.9H582c4.2,0,7.6,3.6,7.6,7.9v21.6
				C589.7,1177.2,584.6,1182.6,578.3,1182.6z"/>
		</g>
		<g data-seat-id="11F" data-cabinClass="economy" class="economy seat">
			<path class="" d="M641.1,1189.5h-24.8c-6.3,0-11.5-5.4-11.5-11.9v-27.5c0-4.4,3.4-7.9,7.6-7.9h32.5c4.2,0,7.6,3.6,7.6,7.9
				v27.5C652.6,1184.2,647.4,1189.5,641.1,1189.5z"/>
			<path class="" d="M636,1182.6h-14.7c-6.3,0-11.5-5.4-11.5-11.9v-21.6c0-4.4,3.4-7.9,7.6-7.9h22.3c4.2,0,7.6,3.6,7.6,7.9v21.6
				C647.4,1177.2,642.3,1182.6,636,1182.6z"/>
		</g>
		<g data-seat-id="12A" data-cabinClass="economy" class="economy seat">
			<path class="" d="M313,1264.5h-25c-6.3,0-11.6-5.4-11.6-11.8v-27.3c0-4.4,3.4-7.8,7.6-7.8h32.7c4.2,0,7.6,3.6,7.6,7.8v27.3
				C324.5,1259.1,319.4,1264.5,313,1264.5z"/>
			<path class="" d="M308,1257.5h-14.9c-6.4,0-11.7-5.3-11.7-11.8v-21.4c0-4.4,3.4-7.8,7.7-7.8h22.6c4.3,0,7.7,3.6,7.7,7.8v21.4
				C319.7,1252.3,314.4,1257.5,308,1257.5z"/>
		</g>
		<g data-seat-id="12B" data-cabinClass="economy" class="economy seat">
			<path class="" d="M371,1264.5h-25c-6.3,0-11.6-5.4-11.6-11.8v-27.3c0-4.4,3.4-7.8,7.6-7.8h32.7c4.2,0,7.6,3.6,7.6,7.8v27.3
				C382.5,1259.1,377.4,1264.5,371,1264.5z"/>
			<path class="" d="M366,1257.5h-14.9c-6.4,0-11.6-5.3-11.6-11.8v-21.4c0-4.4,3.4-7.8,7.7-7.8h22.6c4.2,0,7.7,3.6,7.7,7.8v21.4
				C377.6,1252.3,372.3,1257.5,366,1257.5z"/>
		</g>
		<g data-seat-id="12C" data-cabinClass="economy" class="economy seat">
			<path class="" d="M429,1264.5h-25c-6.3,0-11.6-5.4-11.6-11.8v-27.3c0-4.4,3.4-7.8,7.6-7.8h32.7c4.2,0,7.6,3.6,7.6,7.8v27.3
				C440.6,1259.1,435.4,1264.5,429,1264.5z"/>
			<path class="" d="M424,1257.5h-14.9c-6.4,0-11.7-5.3-11.7-11.8v-21.4c0-4.4,3.4-7.8,7.7-7.8h22.6c4.3,0,7.7,3.6,7.7,7.8v21.4
				C435.6,1252.3,430.4,1257.5,424,1257.5z"/>
		</g>
		<g data-seat-id="12D" data-cabinClass="economy" class="economy seat">
			<path class="" d="M525,1264.5h-25c-6.3,0-11.6-5.4-11.6-11.8v-27.3c0-4.4,3.4-7.8,7.6-7.8h32.7c4.2,0,7.6,3.6,7.6,7.8v27.3
				C536.6,1259.1,531.4,1264.5,525,1264.5z"/>
			<path class="" d="M520,1257.5h-14.9c-6.4,0-11.7-5.3-11.7-11.8v-21.4c0-4.4,3.4-7.8,7.7-7.8h22.6c4.3,0,7.7,3.6,7.7,7.8v21.4
				C531.6,1252.3,526.4,1257.5,520,1257.5z"/>
		</g>
		<g data-seat-id="12E" data-cabinClass="economy" class="economy seat">
			<path class="" d="M583,1264.5h-25c-6.3,0-11.6-5.4-11.6-11.8v-27.3c0-4.4,3.4-7.8,7.6-7.8h32.7c4.2,0,7.6,3.6,7.6,7.8v27.3
				C594.6,1259.1,589.4,1264.5,583,1264.5z"/>
			<path class="" d="M578,1257.5h-14.9c-6.4,0-11.7-5.3-11.7-11.8v-21.4c0-4.4,3.4-7.8,7.7-7.8h22.6c4.3,0,7.7,3.6,7.7,7.8v21.4
				C589.6,1252.3,584.4,1257.5,578,1257.5z"/>
		</g>
		<g data-seat-id="12F" data-cabinClass="economy" class="economy seat">
			<path class="" d="M641.2,1264.5h-25c-6.3,0-11.6-5.4-11.6-11.8v-27.3c0-4.4,3.4-7.8,7.6-7.8H645c4.2,0,7.6,3.6,7.6,7.8v27.3
				C652.7,1259.1,647.5,1264.5,641.2,1264.5z"/>
			<path class="" d="M636.2,1257.5h-14.9c-6.4,0-11.7-5.3-11.7-11.8v-21.4c0-4.4,3.4-7.8,7.7-7.8h22.6c4.3,0,7.7,3.6,7.7,7.8
				v21.4C647.7,1252.3,642.6,1257.5,636.2,1257.5z"/>
		</g>
		<g data-seat-id="14A" data-cabinClass="economy" class="economy seat">
			<path class="" d="M314,1324.5h-25c-6.3,0-11.6-5.4-11.6-11.8v-27.3c0-4.4,3.4-7.8,7.6-7.8h32.7c4.2,0,7.6,3.6,7.6,7.8v27.3
				C325.5,1319.1,320.4,1324.5,314,1324.5z"/>
			<path class="" d="M309,1317.5h-14.9c-6.4,0-11.7-5.3-11.7-11.8v-21.4c0-4.4,3.4-7.8,7.7-7.8h22.6c4.3,0,7.7,3.6,7.7,7.8v21.4
				C320.7,1312.3,315.4,1317.5,309,1317.5z"/>
		</g>
		<g data-seat-id="14B" data-cabinClass="economy" class="economy seat">
			<path class="" d="M372,1324.5h-25c-6.3,0-11.6-5.4-11.6-11.8v-27.3c0-4.4,3.4-7.8,7.6-7.8h32.7c4.2,0,7.6,3.6,7.6,7.8v27.3
				C383.5,1319.1,378.4,1324.5,372,1324.5z"/>
			<path class="" d="M367,1317.5h-14.9c-6.4,0-11.6-5.3-11.6-11.8v-21.4c0-4.4,3.4-7.8,7.7-7.8h22.6c4.2,0,7.7,3.6,7.7,7.8v21.4
				C378.6,1312.3,373.3,1317.5,367,1317.5z"/>
		</g>
		<g data-seat-id="14C" data-cabinClass="economy" class="economy seat">
			<path class="" d="M430,1324.5h-25c-6.3,0-11.6-5.4-11.6-11.8v-27.3c0-4.4,3.4-7.8,7.6-7.8h32.7c4.2,0,7.6,3.6,7.6,7.8v27.3
				C441.6,1319.1,436.4,1324.5,430,1324.5z"/>
			<path class="" d="M425,1317.5h-14.9c-6.4,0-11.7-5.3-11.7-11.8v-21.4c0-4.4,3.4-7.8,7.7-7.8h22.6c4.3,0,7.7,3.6,7.7,7.8v21.4
				C436.6,1312.3,431.4,1317.5,425,1317.5z"/>
		</g>
		<g data-seat-id="14D" data-cabinClass="economy" class="economy seat">
			<path class="" d="M526,1324.5h-25c-6.3,0-11.6-5.4-11.6-11.8v-27.3c0-4.4,3.4-7.8,7.6-7.8h32.7c4.2,0,7.6,3.6,7.6,7.8v27.3
				C537.6,1319.1,532.4,1324.5,526,1324.5z"/>
			<path class="" d="M521,1317.5h-14.9c-6.4,0-11.7-5.3-11.7-11.8v-21.4c0-4.4,3.4-7.8,7.7-7.8h22.6c4.3,0,7.7,3.6,7.7,7.8v21.4
				C532.6,1312.3,527.4,1317.5,521,1317.5z"/>
		</g>
		<g data-seat-id="14E" data-cabinClass="economy" class="economy seat">
			<path class="" d="M584,1324.5h-25c-6.3,0-11.6-5.4-11.6-11.8v-27.3c0-4.4,3.4-7.8,7.6-7.8h32.7c4.2,0,7.6,3.6,7.6,7.8v27.3
				C595.6,1319.1,590.4,1324.5,584,1324.5z"/>
			<path class="" d="M579,1317.5h-14.9c-6.4,0-11.7-5.3-11.7-11.8v-21.4c0-4.4,3.4-7.8,7.7-7.8h22.6c4.3,0,7.7,3.6,7.7,7.8v21.4
				C590.6,1312.3,585.4,1317.5,579,1317.5z"/>
		</g>
		<g data-seat-id="14F" data-cabinClass="economy" class="economy seat">
			<path class="" d="M642.2,1324.5h-25c-6.3,0-11.6-5.4-11.6-11.8v-27.3c0-4.4,3.4-7.8,7.6-7.8H646c4.2,0,7.6,3.6,7.6,7.8v27.3
				C653.7,1319.1,648.5,1324.5,642.2,1324.5z"/>
			<path class="" d="M637.2,1317.5h-14.9c-6.4,0-11.7-5.3-11.7-11.8v-21.4c0-4.4,3.4-7.8,7.7-7.8h22.6c4.3,0,7.7,3.6,7.7,7.8
				v21.4C648.7,1312.3,643.6,1317.5,637.2,1317.5z"/>
		</g>
		<g data-seat-id="15A" data-cabinClass="economy" class="economy seat">
			<path class="" d="M313,1384.5h-25c-6.3,0-11.6-5.4-11.6-11.8v-27.3c0-4.4,3.4-7.8,7.6-7.8h32.7c4.2,0,7.6,3.6,7.6,7.8v27.3
				C324.5,1379.1,319.4,1384.5,313,1384.5z"/>
			<path class="" d="M308,1377.5h-14.9c-6.4,0-11.7-5.3-11.7-11.8v-21.4c0-4.4,3.4-7.8,7.7-7.8h22.6c4.3,0,7.7,3.6,7.7,7.8v21.4
				C319.7,1372.3,314.4,1377.5,308,1377.5z"/>
		</g>
		<g data-seat-id="15B" data-cabinClass="economy" class="economy seat">
			<path class="" d="M371,1384.5h-25c-6.3,0-11.6-5.4-11.6-11.8v-27.3c0-4.4,3.4-7.8,7.6-7.8h32.7c4.2,0,7.6,3.6,7.6,7.8v27.3
				C382.5,1379.1,377.4,1384.5,371,1384.5z"/>
			<path class="" d="M366,1377.5h-14.9c-6.4,0-11.6-5.3-11.6-11.8v-21.4c0-4.4,3.4-7.8,7.7-7.8h22.6c4.2,0,7.7,3.6,7.7,7.8v21.4
				C377.6,1372.3,372.3,1377.5,366,1377.5z"/>
		</g>
		<g data-seat-id="15C" data-cabinClass="economy" class="economy seat">
			<path class="" d="M429,1384.5h-25c-6.3,0-11.6-5.4-11.6-11.8v-27.3c0-4.4,3.4-7.8,7.6-7.8h32.7c4.2,0,7.6,3.6,7.6,7.8v27.3
				C440.6,1379.1,435.4,1384.5,429,1384.5z"/>
			<path class="" d="M424,1377.5h-14.9c-6.4,0-11.7-5.3-11.7-11.8v-21.4c0-4.4,3.4-7.8,7.7-7.8h22.6c4.3,0,7.7,3.6,7.7,7.8v21.4
				C435.6,1372.3,430.4,1377.5,424,1377.5z"/>
		</g>
		<g data-seat-id="15D" data-cabinClass="economy" class="economy seat">
			<path class="" d="M525,1384.5h-25c-6.3,0-11.6-5.4-11.6-11.8v-27.3c0-4.4,3.4-7.8,7.6-7.8h32.7c4.2,0,7.6,3.6,7.6,7.8v27.3
				C536.6,1379.1,531.4,1384.5,525,1384.5z"/>
			<path class="" d="M520,1377.5h-14.9c-6.4,0-11.7-5.3-11.7-11.8v-21.4c0-4.4,3.4-7.8,7.7-7.8h22.6c4.3,0,7.7,3.6,7.7,7.8v21.4
				C531.6,1372.3,526.4,1377.5,520,1377.5z"/>
		</g>
		<g data-seat-id="15E" data-cabinClass="economy" class="economy seat">
			<path class="" d="M583,1384.5h-25c-6.3,0-11.6-5.4-11.6-11.8v-27.3c0-4.4,3.4-7.8,7.6-7.8h32.7c4.2,0,7.6,3.6,7.6,7.8v27.3
				C594.6,1379.1,589.4,1384.5,583,1384.5z"/>
			<path class="" d="M578,1377.5h-14.9c-6.4,0-11.7-5.3-11.7-11.8v-21.4c0-4.4,3.4-7.8,7.7-7.8h22.6c4.3,0,7.7,3.6,7.7,7.8v21.4
				C589.6,1372.3,584.4,1377.5,578,1377.5z"/>
		</g>
		<g data-seat-id="15F" data-cabinClass="economy" class="economy seat">
			<path class="" d="M641.2,1384.5h-25c-6.3,0-11.6-5.4-11.6-11.8v-27.3c0-4.4,3.4-7.8,7.6-7.8H645c4.2,0,7.6,3.6,7.6,7.8v27.3
				C652.7,1379.1,647.5,1384.5,641.2,1384.5z"/>
			<path class="" d="M636.2,1377.5h-14.9c-6.4,0-11.7-5.3-11.7-11.8v-21.4c0-4.4,3.4-7.8,7.7-7.8h22.6c4.3,0,7.7,3.6,7.7,7.8
				v21.4C647.7,1372.3,642.6,1377.5,636.2,1377.5z"/>
		</g>
		<g data-seat-id="16A" data-cabinClass="economy" class="economy seat">
			<path class="" d="M313,1444.8h-25c-6.3,0-11.6-5.4-11.6-11.8v-27.3c0-4.4,3.4-7.8,7.6-7.8h32.7c4.2,0,7.6,3.6,7.6,7.8v27.3
				C324.5,1439.4,319.4,1444.8,313,1444.8z"/>
			<path class="" d="M308,1437.8h-14.9c-6.4,0-11.7-5.3-11.7-11.8v-21.4c0-4.4,3.4-7.8,7.7-7.8h22.6c4.3,0,7.7,3.6,7.7,7.8v21.4
				C319.7,1432.6,314.4,1437.8,308,1437.8z"/>
		</g>
		<g data-seat-id="16B" data-cabinClass="economy" class="economy seat">
			<path class="" d="M371,1444.8h-25c-6.3,0-11.6-5.4-11.6-11.8v-27.3c0-4.4,3.4-7.8,7.6-7.8h32.7c4.2,0,7.6,3.6,7.6,7.8v27.3
				C382.5,1439.4,377.4,1444.8,371,1444.8z"/>
			<path class="" d="M366,1437.8h-14.9c-6.4,0-11.6-5.3-11.6-11.8v-21.4c0-4.4,3.4-7.8,7.7-7.8h22.6c4.2,0,7.7,3.6,7.7,7.8v21.4
				C377.6,1432.6,372.3,1437.8,366,1437.8z"/>
		</g>
		<g data-seat-id="16C" data-cabinClass="economy" class="economy seat">
			<path class="" d="M429,1444.8h-25c-6.3,0-11.6-5.4-11.6-11.8v-27.3c0-4.4,3.4-7.8,7.6-7.8h32.7c4.2,0,7.6,3.6,7.6,7.8v27.3
				C440.6,1439.4,435.4,1444.8,429,1444.8z"/>
			<path class="" d="M424,1437.8h-14.9c-6.4,0-11.7-5.3-11.7-11.8v-21.4c0-4.4,3.4-7.8,7.7-7.8h22.6c4.3,0,7.7,3.6,7.7,7.8v21.4
				C435.6,1432.6,430.4,1437.8,424,1437.8z"/>
		</g>
		<g data-seat-id="16D" data-cabinClass="economy" class="economy seat">
			<path class="" d="M525,1444.8h-25c-6.3,0-11.6-5.4-11.6-11.8v-27.3c0-4.4,3.4-7.8,7.6-7.8h32.7c4.2,0,7.6,3.6,7.6,7.8v27.3
				C536.6,1439.4,531.4,1444.8,525,1444.8z"/>
			<path class="" d="M520,1437.8h-14.9c-6.4,0-11.7-5.3-11.7-11.8v-21.4c0-4.4,3.4-7.8,7.7-7.8h22.6c4.3,0,7.7,3.6,7.7,7.8v21.4
				C531.6,1432.6,526.4,1437.8,520,1437.8z"/>
		</g>
		<g data-seat-id="16E" data-cabinClass="economy" class="economy seat">
			<path class="" d="M583,1444.8h-25c-6.3,0-11.6-5.4-11.6-11.8v-27.3c0-4.4,3.4-7.8,7.6-7.8h32.7c4.2,0,7.6,3.6,7.6,7.8v27.3
				C594.6,1439.4,589.4,1444.8,583,1444.8z"/>
			<path class="" d="M578,1437.8h-14.9c-6.4,0-11.7-5.3-11.7-11.8v-21.4c0-4.4,3.4-7.8,7.7-7.8h22.6c4.3,0,7.7,3.6,7.7,7.8v21.4
				C589.6,1432.6,584.4,1437.8,578,1437.8z"/>
		</g>
		<g data-seat-id="16F" data-cabinClass="economy" class="economy seat">
			<path class="" d="M641.2,1444.8h-25c-6.3,0-11.6-5.4-11.6-11.8v-27.3c0-4.4,3.4-7.8,7.6-7.8H645c4.2,0,7.6,3.6,7.6,7.8v27.3
				C652.7,1439.4,647.5,1444.8,641.2,1444.8z"/>
			<path class="" d="M636.2,1437.8h-14.9c-6.4,0-11.7-5.3-11.7-11.8v-21.4c0-4.4,3.4-7.8,7.7-7.8h22.6c4.3,0,7.7,3.6,7.7,7.8
				v21.4C647.7,1432.6,642.6,1437.8,636.2,1437.8z"/>
		</g>
		<g data-seat-id="17A" data-cabinClass="economy" class="economy seat">
			<path class="" d="M314,1504.8h-25c-6.3,0-11.6-5.4-11.6-11.8v-27.3c0-4.4,3.4-7.8,7.6-7.8h32.7c4.2,0,7.6,3.6,7.6,7.8v27.3
				C325.5,1499.4,320.4,1504.8,314,1504.8z"/>
			<path class="" d="M309,1497.8h-14.9c-6.4,0-11.7-5.3-11.7-11.8v-21.4c0-4.4,3.4-7.8,7.7-7.8h22.6c4.3,0,7.7,3.6,7.7,7.8v21.4
				C320.7,1492.6,315.4,1497.8,309,1497.8z"/>
		</g>
		<g data-seat-id="17B" data-cabinClass="economy" class="economy seat">
			<path class="" d="M372,1504.8h-25c-6.3,0-11.6-5.4-11.6-11.8v-27.3c0-4.4,3.4-7.8,7.6-7.8h32.7c4.2,0,7.6,3.6,7.6,7.8v27.3
				C383.5,1499.4,378.4,1504.8,372,1504.8z"/>
			<path class="" d="M367,1497.8h-14.9c-6.4,0-11.6-5.3-11.6-11.8v-21.4c0-4.4,3.4-7.8,7.7-7.8h22.6c4.2,0,7.7,3.6,7.7,7.8v21.4
				C378.6,1492.6,373.3,1497.8,367,1497.8z"/>
		</g>
		<g data-seat-id="17C" data-cabinClass="economy" class="economy seat">
			<path class="" d="M430,1504.8h-25c-6.3,0-11.6-5.4-11.6-11.8v-27.3c0-4.4,3.4-7.8,7.6-7.8h32.7c4.2,0,7.6,3.6,7.6,7.8v27.3
				C441.6,1499.4,436.4,1504.8,430,1504.8z"/>
			<path class="" d="M425,1497.8h-14.9c-6.4,0-11.7-5.3-11.7-11.8v-21.4c0-4.4,3.4-7.8,7.7-7.8h22.6c4.3,0,7.7,3.6,7.7,7.8v21.4
				C436.6,1492.6,431.4,1497.8,425,1497.8z"/>
		</g>
		<g data-seat-id="17D" data-cabinClass="economy" class="economy seat">
			<path class="" d="M526,1504.8h-25c-6.3,0-11.6-5.4-11.6-11.8v-27.3c0-4.4,3.4-7.8,7.6-7.8h32.7c4.2,0,7.6,3.6,7.6,7.8v27.3
				C537.6,1499.4,532.4,1504.8,526,1504.8z"/>
			<path class="" d="M521,1497.8h-14.9c-6.4,0-11.7-5.3-11.7-11.8v-21.4c0-4.4,3.4-7.8,7.7-7.8h22.6c4.3,0,7.7,3.6,7.7,7.8v21.4
				C532.6,1492.6,527.4,1497.8,521,1497.8z"/>
		</g>
		<g data-seat-id="17E" data-cabinClass="economy" class="economy seat">
			<path class="" d="M584,1504.8h-25c-6.3,0-11.6-5.4-11.6-11.8v-27.3c0-4.4,3.4-7.8,7.6-7.8h32.7c4.2,0,7.6,3.6,7.6,7.8v27.3
				C595.6,1499.4,590.4,1504.8,584,1504.8z"/>
			<path class="" d="M579,1497.8h-14.9c-6.4,0-11.7-5.3-11.7-11.8v-21.4c0-4.4,3.4-7.8,7.7-7.8h22.6c4.3,0,7.7,3.6,7.7,7.8v21.4
				C590.6,1492.6,585.4,1497.8,579,1497.8z"/>
		</g>
		<g data-seat-id="17F" data-cabinClass="economy" class="economy seat">
			<path class="" d="M642.2,1504.8h-25c-6.3,0-11.6-5.4-11.6-11.8v-27.3c0-4.4,3.4-7.8,7.6-7.8H646c4.2,0,7.6,3.6,7.6,7.8v27.3
				C653.7,1499.4,648.5,1504.8,642.2,1504.8z"/>
			<path class="" d="M637.2,1497.8h-14.9c-6.4,0-11.7-5.3-11.7-11.8v-21.4c0-4.4,3.4-7.8,7.7-7.8h22.6c4.3,0,7.7,3.6,7.7,7.8
				v21.4C648.7,1492.6,643.6,1497.8,637.2,1497.8z"/>
		</g>
		<g data-seat-id="18A" data-cabinClass="economy" class="economy seat">
			<path class="" d="M313,1564.8h-25c-6.3,0-11.6-5.4-11.6-11.8v-27.3c0-4.4,3.4-7.8,7.6-7.8h32.7c4.2,0,7.6,3.6,7.6,7.8v27.3
				C324.5,1559.4,319.4,1564.8,313,1564.8z"/>
			<path class="" d="M308,1557.8h-14.9c-6.4,0-11.7-5.3-11.7-11.8v-21.4c0-4.4,3.4-7.8,7.7-7.8h22.6c4.3,0,7.7,3.6,7.7,7.8v21.4
				C319.7,1552.6,314.4,1557.8,308,1557.8z"/>
		</g>
		<g data-seat-id="18B" data-cabinClass="economy" class="economy seat">
			<path class="" d="M371,1564.8h-25c-6.3,0-11.6-5.4-11.6-11.8v-27.3c0-4.4,3.4-7.8,7.6-7.8h32.7c4.2,0,7.6,3.6,7.6,7.8v27.3
				C382.5,1559.4,377.4,1564.8,371,1564.8z"/>
			<path class="" d="M366,1557.8h-14.9c-6.4,0-11.6-5.3-11.6-11.8v-21.4c0-4.4,3.4-7.8,7.7-7.8h22.6c4.2,0,7.7,3.6,7.7,7.8v21.4
				C377.6,1552.6,372.3,1557.8,366,1557.8z"/>
		</g>
		<g data-seat-id="18C" data-cabinClass="economy" class="economy seat">
			<path class="" d="M429,1564.8h-25c-6.3,0-11.6-5.4-11.6-11.8v-27.3c0-4.4,3.4-7.8,7.6-7.8h32.7c4.2,0,7.6,3.6,7.6,7.8v27.3
				C440.6,1559.4,435.4,1564.8,429,1564.8z"/>
			<path class="" d="M424,1557.8h-14.9c-6.4,0-11.7-5.3-11.7-11.8v-21.4c0-4.4,3.4-7.8,7.7-7.8h22.6c4.3,0,7.7,3.6,7.7,7.8v21.4
				C435.6,1552.6,430.4,1557.8,424,1557.8z"/>
		</g>
		<g data-seat-id="18D" data-cabinClass="economy" class="economy seat">
			<path class="" d="M525,1564.8h-25c-6.3,0-11.6-5.4-11.6-11.8v-27.3c0-4.4,3.4-7.8,7.6-7.8h32.7c4.2,0,7.6,3.6,7.6,7.8v27.3
				C536.6,1559.4,531.4,1564.8,525,1564.8z"/>
			<path class="" d="M520,1557.8h-14.9c-6.4,0-11.7-5.3-11.7-11.8v-21.4c0-4.4,3.4-7.8,7.7-7.8h22.6c4.3,0,7.7,3.6,7.7,7.8v21.4
				C531.6,1552.6,526.4,1557.8,520,1557.8z"/>
		</g>
		<g data-seat-id="18E" data-cabinClass="economy" class="economy seat">
			<path class="" d="M583,1564.8h-25c-6.3,0-11.6-5.4-11.6-11.8v-27.3c0-4.4,3.4-7.8,7.6-7.8h32.7c4.2,0,7.6,3.6,7.6,7.8v27.3
				C594.6,1559.4,589.4,1564.8,583,1564.8z"/>
			<path class="" d="M578,1557.8h-14.9c-6.4,0-11.7-5.3-11.7-11.8v-21.4c0-4.4,3.4-7.8,7.7-7.8h22.6c4.3,0,7.7,3.6,7.7,7.8v21.4
				C589.6,1552.6,584.4,1557.8,578,1557.8z"/>
		</g>
		<g data-seat-id="18F" data-cabinClass="economy" class="economy seat">
			<path class="" d="M641.2,1564.8h-25c-6.3,0-11.6-5.4-11.6-11.8v-27.3c0-4.4,3.4-7.8,7.6-7.8H645c4.2,0,7.6,3.6,7.6,7.8v27.3
				C652.7,1559.4,647.5,1564.8,641.2,1564.8z"/>
			<path class="" d="M636.2,1557.8h-14.9c-6.4,0-11.7-5.3-11.7-11.8v-21.4c0-4.4,3.4-7.8,7.7-7.8h22.6c4.3,0,7.7,3.6,7.7,7.8
				v21.4C647.7,1552.6,642.6,1557.8,636.2,1557.8z"/>
		</g>
		<g data-seat-id="19A" data-cabinClass="economy" class="economy seat">
			<path class="" d="M313.5,1623.4h-25c-6.3,0-11.6-5.4-11.6-11.8v-27.3c0-4.4,3.4-7.8,7.6-7.8h32.7c4.2,0,7.6,3.6,7.6,7.8v27.3
				C325,1618,319.9,1623.4,313.5,1623.4z"/>
			<path class="" d="M308.5,1616.4h-14.9c-6.4,0-11.7-5.3-11.7-11.8v-21.4c0-4.4,3.4-7.8,7.7-7.8h22.6c4.3,0,7.7,3.6,7.7,7.8
				v21.4C320.2,1611.2,314.9,1616.4,308.5,1616.4z"/>
		</g>
		<g data-seat-id="19B" data-cabinClass="economy" class="economy seat">
			<path class="" d="M371.5,1623.4h-25c-6.3,0-11.6-5.4-11.6-11.8v-27.3c0-4.4,3.4-7.8,7.6-7.8h32.7c4.2,0,7.6,3.6,7.6,7.8v27.3
				C383,1618,377.9,1623.4,371.5,1623.4z"/>
			<path class="" d="M366.5,1616.4h-14.9c-6.4,0-11.6-5.3-11.6-11.8v-21.4c0-4.4,3.4-7.8,7.7-7.8h22.6c4.2,0,7.7,3.6,7.7,7.8
				v21.4C378.1,1611.2,372.8,1616.4,366.5,1616.4z"/>
		</g>
		<g data-seat-id="19C" data-cabinClass="economy" class="economy seat">
			<path class="" d="M429.5,1623.4h-25c-6.3,0-11.6-5.4-11.6-11.8v-27.3c0-4.4,3.4-7.8,7.6-7.8h32.7c4.2,0,7.6,3.6,7.6,7.8v27.3
				C441.1,1618,435.9,1623.4,429.5,1623.4z"/>
			<path class="" d="M424.5,1616.4h-14.9c-6.4,0-11.7-5.3-11.7-11.8v-21.4c0-4.4,3.4-7.8,7.7-7.8h22.6c4.3,0,7.7,3.6,7.7,7.8
				v21.4C436.1,1611.2,430.9,1616.4,424.5,1616.4z"/>
		</g>
		<g data-seat-id="19D" data-cabinClass="economy" class="economy seat">
			<path class="" d="M525.5,1623.4h-25c-6.3,0-11.6-5.4-11.6-11.8v-27.3c0-4.4,3.4-7.8,7.6-7.8h32.7c4.2,0,7.6,3.6,7.6,7.8v27.3
				C537.1,1618,531.9,1623.4,525.5,1623.4z"/>
			<path class="" d="M520.5,1616.4h-14.9c-6.4,0-11.7-5.3-11.7-11.8v-21.4c0-4.4,3.4-7.8,7.7-7.8h22.6c4.3,0,7.7,3.6,7.7,7.8
				v21.4C532.1,1611.2,526.9,1616.4,520.5,1616.4z"/>
		</g>
		<g data-seat-id="19E" data-cabinClass="economy" class="economy seat">
			<path class="" d="M583.5,1623.4h-25c-6.3,0-11.6-5.4-11.6-11.8v-27.3c0-4.4,3.4-7.8,7.6-7.8h32.7c4.2,0,7.6,3.6,7.6,7.8v27.3
				C595.1,1618,589.9,1623.4,583.5,1623.4z"/>
			<path class="" d="M578.5,1616.4h-14.9c-6.4,0-11.7-5.3-11.7-11.8v-21.4c0-4.4,3.4-7.8,7.7-7.8h22.6c4.3,0,7.7,3.6,7.7,7.8
				v21.4C590.1,1611.2,584.9,1616.4,578.5,1616.4z"/>
		</g>
		<g data-seat-id="19F" data-cabinClass="economy" class="economy seat">
			<path class="" d="M641.7,1623.4h-25c-6.3,0-11.6-5.4-11.6-11.8v-27.3c0-4.4,3.4-7.8,7.6-7.8h32.8c4.2,0,7.6,3.6,7.6,7.8v27.3
				C653.2,1618,648,1623.4,641.7,1623.4z"/>
			<path class="" d="M636.7,1616.4h-14.9c-6.4,0-11.7-5.3-11.7-11.8v-21.4c0-4.4,3.4-7.8,7.7-7.8h22.6c4.3,0,7.7,3.6,7.7,7.8
				v21.4C648.2,1611.2,643.1,1616.4,636.7,1616.4z"/>
		</g>
		<g data-seat-id="20A" data-cabinClass="economy" class="economy seat">
			<path class="" d="M314.5,1683.4h-25c-6.3,0-11.6-5.4-11.6-11.8v-27.3c0-4.4,3.4-7.8,7.6-7.8h32.7c4.2,0,7.6,3.6,7.6,7.8v27.3
				C326,1678,320.9,1683.4,314.5,1683.4z"/>
			<path class="" d="M309.5,1676.4h-14.9c-6.4,0-11.7-5.3-11.7-11.8v-21.4c0-4.4,3.4-7.8,7.7-7.8h22.6c4.3,0,7.7,3.6,7.7,7.8
				v21.4C321.2,1671.2,315.9,1676.4,309.5,1676.4z"/>
		</g>
		<g data-seat-id="20B" data-cabinClass="economy" class="economy seat">
			<path class="" d="M372.5,1683.4h-25c-6.3,0-11.6-5.4-11.6-11.8v-27.3c0-4.4,3.4-7.8,7.6-7.8h32.7c4.2,0,7.6,3.6,7.6,7.8v27.3
				C384,1678,378.9,1683.4,372.5,1683.4z"/>
			<path class="" d="M367.5,1676.4h-14.9c-6.4,0-11.6-5.3-11.6-11.8v-21.4c0-4.4,3.4-7.8,7.7-7.8h22.6c4.2,0,7.7,3.6,7.7,7.8
				v21.4C379.1,1671.2,373.8,1676.4,367.5,1676.4z"/>
		</g>
		<g data-seat-id="20C" data-cabinClass="economy" class="economy seat">
			<path class="" d="M430.5,1683.4h-25c-6.3,0-11.6-5.4-11.6-11.8v-27.3c0-4.4,3.4-7.8,7.6-7.8h32.7c4.2,0,7.6,3.6,7.6,7.8v27.3
				C442.1,1678,436.9,1683.4,430.5,1683.4z"/>
			<path class="" d="M425.5,1676.4h-14.9c-6.4,0-11.7-5.3-11.7-11.8v-21.4c0-4.4,3.4-7.8,7.7-7.8h22.6c4.3,0,7.7,3.6,7.7,7.8
				v21.4C437.1,1671.2,431.9,1676.4,425.5,1676.4z"/>
		</g>
		<g data-seat-id="20D" data-cabinClass="economy" class="economy seat">
			<path class="" d="M526.5,1683.4h-25c-6.3,0-11.6-5.4-11.6-11.8v-27.3c0-4.4,3.4-7.8,7.6-7.8h32.7c4.2,0,7.6,3.6,7.6,7.8v27.3
				C538.1,1678,532.9,1683.4,526.5,1683.4z"/>
			<path class="" d="M521.5,1676.4h-14.9c-6.4,0-11.7-5.3-11.7-11.8v-21.4c0-4.4,3.4-7.8,7.7-7.8h22.6c4.3,0,7.7,3.6,7.7,7.8
				v21.4C533.1,1671.2,527.9,1676.4,521.5,1676.4z"/>
		</g>
		<g data-seat-id="20E" data-cabinClass="economy" class="economy seat">
			<path class="" d="M584.5,1683.4h-25c-6.3,0-11.6-5.4-11.6-11.8v-27.3c0-4.4,3.4-7.8,7.6-7.8h32.7c4.2,0,7.6,3.6,7.6,7.8v27.3
				C596.1,1678,590.9,1683.4,584.5,1683.4z"/>
			<path class="" d="M579.5,1676.4h-14.9c-6.4,0-11.7-5.3-11.7-11.8v-21.4c0-4.4,3.4-7.8,7.7-7.8h22.6c4.3,0,7.7,3.6,7.7,7.8
				v21.4C591.1,1671.2,585.9,1676.4,579.5,1676.4z"/>
		</g>
		<g data-seat-id="20F" data-cabinClass="economy" class="economy seat">
			<path class="" d="M642.7,1683.4h-25c-6.3,0-11.6-5.4-11.6-11.8v-27.3c0-4.4,3.4-7.8,7.6-7.8h32.8c4.2,0,7.6,3.6,7.6,7.8v27.3
				C654.2,1678,649,1683.4,642.7,1683.4z"/>
			<path class="" d="M637.7,1676.4h-14.9c-6.4,0-11.7-5.3-11.7-11.8v-21.4c0-4.4,3.4-7.8,7.7-7.8h22.6c4.3,0,7.7,3.6,7.7,7.8
				v21.4C649.2,1671.2,644.1,1676.4,637.7,1676.4z"/>
		</g>
		<g data-seat-id="21A" data-cabinClass="economy" class="economy seat">
			<path class="" d="M313.5,1743.4h-25c-6.3,0-11.6-5.4-11.6-11.8v-27.3c0-4.4,3.4-7.8,7.6-7.8h32.7c4.2,0,7.6,3.6,7.6,7.8v27.3
				C325,1738,319.9,1743.4,313.5,1743.4z"/>
			<path class="" d="M308.5,1736.4h-14.9c-6.4,0-11.7-5.3-11.7-11.8v-21.4c0-4.4,3.4-7.8,7.7-7.8h22.6c4.3,0,7.7,3.6,7.7,7.8
				v21.4C320.2,1731.2,314.9,1736.4,308.5,1736.4z"/>
		</g>
		<g data-seat-id="21B" data-cabinClass="economy" class="economy seat">
			<path class="" d="M371.5,1743.4h-25c-6.3,0-11.6-5.4-11.6-11.8v-27.3c0-4.4,3.4-7.8,7.6-7.8h32.7c4.2,0,7.6,3.6,7.6,7.8v27.3
				C383,1738,377.9,1743.4,371.5,1743.4z"/>
			<path class="" d="M366.5,1736.4h-14.9c-6.4,0-11.6-5.3-11.6-11.8v-21.4c0-4.4,3.4-7.8,7.7-7.8h22.6c4.2,0,7.7,3.6,7.7,7.8
				v21.4C378.1,1731.2,372.8,1736.4,366.5,1736.4z"/>
		</g>
		<g data-seat-id="21C" data-cabinClass="economy" class="economy seat">
			<path class="" d="M429.5,1743.4h-25c-6.3,0-11.6-5.4-11.6-11.8v-27.3c0-4.4,3.4-7.8,7.6-7.8h32.7c4.2,0,7.6,3.6,7.6,7.8v27.3
				C441.1,1738,435.9,1743.4,429.5,1743.4z"/>
			<path class="" d="M424.5,1736.4h-14.9c-6.4,0-11.7-5.3-11.7-11.8v-21.4c0-4.4,3.4-7.8,7.7-7.8h22.6c4.3,0,7.7,3.6,7.7,7.8
				v21.4C436.1,1731.2,430.9,1736.4,424.5,1736.4z"/>
		</g>
		<g data-seat-id="21D" data-cabinClass="economy" class="economy seat">
			<path class="" d="M525.5,1743.4h-25c-6.3,0-11.6-5.4-11.6-11.8v-27.3c0-4.4,3.4-7.8,7.6-7.8h32.7c4.2,0,7.6,3.6,7.6,7.8v27.3
				C537.1,1738,531.9,1743.4,525.5,1743.4z"/>
			<path class="" d="M520.5,1736.4h-14.9c-6.4,0-11.7-5.3-11.7-11.8v-21.4c0-4.4,3.4-7.8,7.7-7.8h22.6c4.3,0,7.7,3.6,7.7,7.8
				v21.4C532.1,1731.2,526.9,1736.4,520.5,1736.4z"/>
		</g>
		<g data-seat-id="21E" data-cabinClass="economy" class="economy seat">
			<path class="" d="M583.5,1743.4h-25c-6.3,0-11.6-5.4-11.6-11.8v-27.3c0-4.4,3.4-7.8,7.6-7.8h32.7c4.2,0,7.6,3.6,7.6,7.8v27.3
				C595.1,1738,589.9,1743.4,583.5,1743.4z"/>
			<path class="" d="M578.5,1736.4h-14.9c-6.4,0-11.7-5.3-11.7-11.8v-21.4c0-4.4,3.4-7.8,7.7-7.8h22.6c4.3,0,7.7,3.6,7.7,7.8
				v21.4C590.1,1731.2,584.9,1736.4,578.5,1736.4z"/>
		</g>
		<g data-seat-id="21F" data-cabinClass="economy" class="economy seat">
			<path class="" d="M641.7,1743.4h-25c-6.3,0-11.6-5.4-11.6-11.8v-27.3c0-4.4,3.4-7.8,7.6-7.8h32.8c4.2,0,7.6,3.6,7.6,7.8v27.3
				C653.2,1738,648,1743.4,641.7,1743.4z"/>
			<path class="" d="M636.7,1736.4h-14.9c-6.4,0-11.7-5.3-11.7-11.8v-21.4c0-4.4,3.4-7.8,7.7-7.8h22.6c4.3,0,7.7,3.6,7.7,7.8
				v21.4C648.2,1731.2,643.1,1736.4,636.7,1736.4z"/>
		</g>
		<g data-seat-id="22A" data-cabinClass="economy" class="economy seat">
			<path class="" d="M313.5,1803.7h-25c-6.3,0-11.6-5.4-11.6-11.8v-27.3c0-4.4,3.4-7.8,7.6-7.8h32.7c4.2,0,7.6,3.6,7.6,7.8v27.3
				C325,1798.3,319.9,1803.7,313.5,1803.7z"/>
			<path class="" d="M308.5,1796.7h-14.9c-6.4,0-11.7-5.3-11.7-11.8v-21.4c0-4.4,3.4-7.8,7.7-7.8h22.6c4.3,0,7.7,3.6,7.7,7.8
				v21.4C320.2,1791.5,314.9,1796.7,308.5,1796.7z"/>
		</g>
		<g data-seat-id="22B" data-cabinClass="economy" class="economy seat">
			<path class="" d="M371.5,1803.7h-25c-6.3,0-11.6-5.4-11.6-11.8v-27.3c0-4.4,3.4-7.8,7.6-7.8h32.7c4.2,0,7.6,3.6,7.6,7.8v27.3
				C383,1798.3,377.9,1803.7,371.5,1803.7z"/>
			<path class="" d="M366.5,1796.7h-14.9c-6.4,0-11.6-5.3-11.6-11.8v-21.4c0-4.4,3.4-7.8,7.7-7.8h22.6c4.2,0,7.7,3.6,7.7,7.8
				v21.4C378.1,1791.5,372.8,1796.7,366.5,1796.7z"/>
		</g>
		<g data-seat-id="22C" data-cabinClass="economy" class="economy seat">
			<path class="" d="M429.5,1803.7h-25c-6.3,0-11.6-5.4-11.6-11.8v-27.3c0-4.4,3.4-7.8,7.6-7.8h32.7c4.2,0,7.6,3.6,7.6,7.8v27.3
				C441.1,1798.3,435.9,1803.7,429.5,1803.7z"/>
			<path class="" d="M424.5,1796.7h-14.9c-6.4,0-11.7-5.3-11.7-11.8v-21.4c0-4.4,3.4-7.8,7.7-7.8h22.6c4.3,0,7.7,3.6,7.7,7.8
				v21.4C436.1,1791.5,430.9,1796.7,424.5,1796.7z"/>
		</g>
		<g data-seat-id="22D" data-cabinClass="economy" class="economy seat">
			<path class="" d="M525.5,1803.7h-25c-6.3,0-11.6-5.4-11.6-11.8v-27.3c0-4.4,3.4-7.8,7.6-7.8h32.7c4.2,0,7.6,3.6,7.6,7.8v27.3
				C537.1,1798.3,531.9,1803.7,525.5,1803.7z"/>
			<path class="" d="M520.5,1796.7h-14.9c-6.4,0-11.7-5.3-11.7-11.8v-21.4c0-4.4,3.4-7.8,7.7-7.8h22.6c4.3,0,7.7,3.6,7.7,7.8
				v21.4C532.1,1791.5,526.9,1796.7,520.5,1796.7z"/>
		</g>
		<g data-seat-id="22E" data-cabinClass="economy" class="economy seat">
			<path class="" d="M583.5,1803.7h-25c-6.3,0-11.6-5.4-11.6-11.8v-27.3c0-4.4,3.4-7.8,7.6-7.8h32.7c4.2,0,7.6,3.6,7.6,7.8v27.3
				C595.1,1798.3,589.9,1803.7,583.5,1803.7z"/>
			<path class="" d="M578.5,1796.7h-14.9c-6.4,0-11.7-5.3-11.7-11.8v-21.4c0-4.4,3.4-7.8,7.7-7.8h22.6c4.3,0,7.7,3.6,7.7,7.8
				v21.4C590.1,1791.5,584.9,1796.7,578.5,1796.7z"/>
		</g>
		<g data-seat-id="22F" data-cabinClass="economy" class="economy seat">
			<path class="" d="M641.7,1803.7h-25c-6.3,0-11.6-5.4-11.6-11.8v-27.3c0-4.4,3.4-7.8,7.6-7.8h32.8c4.2,0,7.6,3.6,7.6,7.8v27.3
				C653.2,1798.3,648,1803.7,641.7,1803.7z"/>
			<path class="" d="M636.7,1796.7h-14.9c-6.4,0-11.7-5.3-11.7-11.8v-21.4c0-4.4,3.4-7.8,7.7-7.8h22.6c4.3,0,7.7,3.6,7.7,7.8
				v21.4C648.2,1791.5,643.1,1796.7,636.7,1796.7z"/>
		</g>
		<g data-seat-id="23A" data-cabinClass="economy" class="economy seat">
			<path class="" d="M314.5,1863.7h-25c-6.3,0-11.6-5.4-11.6-11.8v-27.3c0-4.4,3.4-7.8,7.6-7.8h32.7c4.2,0,7.6,3.6,7.6,7.8v27.3
				C326,1858.3,320.9,1863.7,314.5,1863.7z"/>
			<path class="" d="M309.5,1856.7h-14.9c-6.4,0-11.7-5.3-11.7-11.8v-21.4c0-4.4,3.4-7.8,7.7-7.8h22.6c4.3,0,7.7,3.6,7.7,7.8
				v21.4C321.2,1851.5,315.9,1856.7,309.5,1856.7z"/>
		</g>
		<g data-seat-id="23B" data-cabinClass="economy" class="economy seat">
			<path class="" d="M372.5,1863.7h-25c-6.3,0-11.6-5.4-11.6-11.8v-27.3c0-4.4,3.4-7.8,7.6-7.8h32.7c4.2,0,7.6,3.6,7.6,7.8v27.3
				C384,1858.3,378.9,1863.7,372.5,1863.7z"/>
			<path class="" d="M367.5,1856.7h-14.9c-6.4,0-11.6-5.3-11.6-11.8v-21.4c0-4.4,3.4-7.8,7.7-7.8h22.6c4.2,0,7.7,3.6,7.7,7.8
				v21.4C379.1,1851.5,373.8,1856.7,367.5,1856.7z"/>
		</g>
		<g data-seat-id="23C" data-cabinClass="economy" class="economy seat">
			<path class="" d="M430.5,1863.7h-25c-6.3,0-11.6-5.4-11.6-11.8v-27.3c0-4.4,3.4-7.8,7.6-7.8h32.7c4.2,0,7.6,3.6,7.6,7.8v27.3
				C442.1,1858.3,436.9,1863.7,430.5,1863.7z"/>
			<path class="" d="M425.5,1856.7h-14.9c-6.4,0-11.7-5.3-11.7-11.8v-21.4c0-4.4,3.4-7.8,7.7-7.8h22.6c4.3,0,7.7,3.6,7.7,7.8
				v21.4C437.1,1851.5,431.9,1856.7,425.5,1856.7z"/>
		</g>
		<g data-seat-id="23D" data-cabinClass="economy" class="economy seat">
			<path class="" d="M526.5,1863.7h-25c-6.3,0-11.6-5.4-11.6-11.8v-27.3c0-4.4,3.4-7.8,7.6-7.8h32.7c4.2,0,7.6,3.6,7.6,7.8v27.3
				C538.1,1858.3,532.9,1863.7,526.5,1863.7z"/>
			<path class="" d="M521.5,1856.7h-14.9c-6.4,0-11.7-5.3-11.7-11.8v-21.4c0-4.4,3.4-7.8,7.7-7.8h22.6c4.3,0,7.7,3.6,7.7,7.8
				v21.4C533.1,1851.5,527.9,1856.7,521.5,1856.7z"/>
		</g>
		<g data-seat-id="23E" data-cabinClass="economy" class="economy seat">
			<path class="" d="M584.5,1863.7h-25c-6.3,0-11.6-5.4-11.6-11.8v-27.3c0-4.4,3.4-7.8,7.6-7.8h32.7c4.2,0,7.6,3.6,7.6,7.8v27.3
				C596.1,1858.3,590.9,1863.7,584.5,1863.7z"/>
			<path class="" d="M579.5,1856.7h-14.9c-6.4,0-11.7-5.3-11.7-11.8v-21.4c0-4.4,3.4-7.8,7.7-7.8h22.6c4.3,0,7.7,3.6,7.7,7.8
				v21.4C591.1,1851.5,585.9,1856.7,579.5,1856.7z"/>
		</g>
		<g data-seat-id="23F" data-cabinClass="economy" class="economy seat">
			<path class="" d="M642.7,1863.7h-25c-6.3,0-11.6-5.4-11.6-11.8v-27.3c0-4.4,3.4-7.8,7.6-7.8h32.8c4.2,0,7.6,3.6,7.6,7.8v27.3
				C654.2,1858.3,649,1863.7,642.7,1863.7z"/>
			<path class="" d="M637.7,1856.7h-14.9c-6.4,0-11.7-5.3-11.7-11.8v-21.4c0-4.4,3.4-7.8,7.7-7.8h22.6c4.3,0,7.7,3.6,7.7,7.8
				v21.4C649.2,1851.5,644.1,1856.7,637.7,1856.7z"/>
		</g>
		<g data-seat-id="24A" data-cabinClass="economy" class="economy seat">
			<path class="" d="M313.5,1923.7h-25c-6.3,0-11.6-5.4-11.6-11.8v-27.3c0-4.4,3.4-7.8,7.6-7.8h32.7c4.2,0,7.6,3.6,7.6,7.8v27.3
				C325,1918.3,319.9,1923.7,313.5,1923.7z"/>
			<path class="" d="M308.5,1916.7h-14.9c-6.4,0-11.7-5.3-11.7-11.8v-21.4c0-4.4,3.4-7.8,7.7-7.8h22.6c4.3,0,7.7,3.6,7.7,7.8
				v21.4C320.2,1911.5,314.9,1916.7,308.5,1916.7z"/>
		</g>
		<g data-seat-id="24B" data-cabinClass="economy" class="economy seat">
			<path class="" d="M371.5,1923.7h-25c-6.3,0-11.6-5.4-11.6-11.8v-27.3c0-4.4,3.4-7.8,7.6-7.8h32.7c4.2,0,7.6,3.6,7.6,7.8v27.3
				C383,1918.3,377.9,1923.7,371.5,1923.7z"/>
			<path class="" d="M366.5,1916.7h-14.9c-6.4,0-11.6-5.3-11.6-11.8v-21.4c0-4.4,3.4-7.8,7.7-7.8h22.6c4.2,0,7.7,3.6,7.7,7.8
				v21.4C378.1,1911.5,372.8,1916.7,366.5,1916.7z"/>
		</g>
		<g data-seat-id="24C" data-cabinClass="economy" class="economy seat">
			<path class="" d="M429.5,1923.7h-25c-6.3,0-11.6-5.4-11.6-11.8v-27.3c0-4.4,3.4-7.8,7.6-7.8h32.7c4.2,0,7.6,3.6,7.6,7.8v27.3
				C441.1,1918.3,435.9,1923.7,429.5,1923.7z"/>
			<path class="" d="M424.5,1916.7h-14.9c-6.4,0-11.7-5.3-11.7-11.8v-21.4c0-4.4,3.4-7.8,7.7-7.8h22.6c4.3,0,7.7,3.6,7.7,7.8
				v21.4C436.1,1911.5,430.9,1916.7,424.5,1916.7z"/>
		</g>
		<g data-seat-id="24D" data-cabinClass="economy" class="economy seat">
			<path class="" d="M525.5,1923.7h-25c-6.3,0-11.6-5.4-11.6-11.8v-27.3c0-4.4,3.4-7.8,7.6-7.8h32.7c4.2,0,7.6,3.6,7.6,7.8v27.3
				C537.1,1918.3,531.9,1923.7,525.5,1923.7z"/>
			<path class="" d="M520.5,1916.7h-14.9c-6.4,0-11.7-5.3-11.7-11.8v-21.4c0-4.4,3.4-7.8,7.7-7.8h22.6c4.3,0,7.7,3.6,7.7,7.8
				v21.4C532.1,1911.5,526.9,1916.7,520.5,1916.7z"/>
		</g>
		<g data-seat-id="24E" data-cabinClass="economy" class="economy seat">
			<path class="" d="M583.5,1923.7h-25c-6.3,0-11.6-5.4-11.6-11.8v-27.3c0-4.4,3.4-7.8,7.6-7.8h32.7c4.2,0,7.6,3.6,7.6,7.8v27.3
				C595.1,1918.3,589.9,1923.7,583.5,1923.7z"/>
			<path class="" d="M578.5,1916.7h-14.9c-6.4,0-11.7-5.3-11.7-11.8v-21.4c0-4.4,3.4-7.8,7.7-7.8h22.6c4.3,0,7.7,3.6,7.7,7.8
				v21.4C590.1,1911.5,584.9,1916.7,578.5,1916.7z"/>
		</g>
		<g data-seat-id="24F" data-cabinClass="economy" class="economy seat">
			<path class="" d="M641.7,1923.7h-25c-6.3,0-11.6-5.4-11.6-11.8v-27.3c0-4.4,3.4-7.8,7.6-7.8h32.8c4.2,0,7.6,3.6,7.6,7.8v27.3
				C653.2,1918.3,648,1923.7,641.7,1923.7z"/>
			<path class="" d="M636.7,1916.7h-14.9c-6.4,0-11.7-5.3-11.7-11.8v-21.4c0-4.4,3.4-7.8,7.7-7.8h22.6c4.3,0,7.7,3.6,7.7,7.8
				v21.4C648.2,1911.5,643.1,1916.7,636.7,1916.7z"/>
		</g>
		<g data-seat-id="25A" data-cabinClass="economy" class="economy seat">
			<path class="" d="M313.5,1984.1h-25c-6.3,0-11.6-5.4-11.6-11.8V1945c0-4.4,3.4-7.8,7.6-7.8h32.7c4.2,0,7.6,3.6,7.6,7.8v27.3
				C325,1978.7,319.9,1984.1,313.5,1984.1z"/>
			<path class="" d="M308.5,1977.1h-14.9c-6.4,0-11.7-5.3-11.7-11.8v-21.4c0-4.4,3.4-7.8,7.7-7.8h22.6c4.3,0,7.7,3.6,7.7,7.8
				v21.4C320.2,1971.9,314.9,1977.1,308.5,1977.1z"/>
		</g>
		<g data-seat-id="25B" data-cabinClass="economy" class="economy seat">
			<path class="" d="M371.5,1984.1h-25c-6.3,0-11.6-5.4-11.6-11.8V1945c0-4.4,3.4-7.8,7.6-7.8h32.7c4.2,0,7.6,3.6,7.6,7.8v27.3
				C383,1978.7,377.9,1984.1,371.5,1984.1z"/>
			<path class="" d="M366.5,1977.1h-14.9c-6.4,0-11.6-5.3-11.6-11.8v-21.4c0-4.4,3.4-7.8,7.7-7.8h22.6c4.2,0,7.7,3.6,7.7,7.8
				v21.4C378.1,1971.9,372.8,1977.1,366.5,1977.1z"/>
		</g>
		<g data-seat-id="25C" data-cabinClass="economy" class="economy seat">
			<path class="" d="M429.5,1984.1h-25c-6.3,0-11.6-5.4-11.6-11.8V1945c0-4.4,3.4-7.8,7.6-7.8h32.7c4.2,0,7.6,3.6,7.6,7.8v27.3
				C441.1,1978.7,435.9,1984.1,429.5,1984.1z"/>
			<path class="" d="M424.5,1977.1h-14.9c-6.4,0-11.7-5.3-11.7-11.8v-21.4c0-4.4,3.4-7.8,7.7-7.8h22.6c4.3,0,7.7,3.6,7.7,7.8
				v21.4C436.1,1971.9,430.9,1977.1,424.5,1977.1z"/>
		</g>
		<g data-seat-id="25D" data-cabinClass="economy" class="economy seat">
			<path class="" d="M525.5,1984.1h-25c-6.3,0-11.6-5.4-11.6-11.8V1945c0-4.4,3.4-7.8,7.6-7.8h32.7c4.2,0,7.6,3.6,7.6,7.8v27.3
				C537.1,1978.7,531.9,1984.1,525.5,1984.1z"/>
			<path class="" d="M520.5,1977.1h-14.9c-6.4,0-11.7-5.3-11.7-11.8v-21.4c0-4.4,3.4-7.8,7.7-7.8h22.6c4.3,0,7.7,3.6,7.7,7.8
				v21.4C532.1,1971.9,526.9,1977.1,520.5,1977.1z"/>
		</g>
		<g data-seat-id="25E" data-cabinClass="economy" class="economy seat">
			<path class="" d="M583.5,1984.1h-25c-6.3,0-11.6-5.4-11.6-11.8V1945c0-4.4,3.4-7.8,7.6-7.8h32.7c4.2,0,7.6,3.6,7.6,7.8v27.3
				C595.1,1978.7,589.9,1984.1,583.5,1984.1z"/>
			<path class="" d="M578.5,1977.1h-14.9c-6.4,0-11.7-5.3-11.7-11.8v-21.4c0-4.4,3.4-7.8,7.7-7.8h22.6c4.3,0,7.7,3.6,7.7,7.8
				v21.4C590.1,1971.9,584.9,1977.1,578.5,1977.1z"/>
		</g>
		<g data-seat-id="25F" data-cabinClass="economy" class="economy seat">
			<path class="" d="M641.7,1984.1h-25c-6.3,0-11.6-5.4-11.6-11.8V1945c0-4.4,3.4-7.8,7.6-7.8h32.8c4.2,0,7.6,3.6,7.6,7.8v27.3
				C653.2,1978.7,648,1984.1,641.7,1984.1z"/>
			<path class="" d="M636.7,1977.1h-14.9c-6.4,0-11.7-5.3-11.7-11.8v-21.4c0-4.4,3.4-7.8,7.7-7.8h22.6c4.3,0,7.7,3.6,7.7,7.8
				v21.4C648.2,1971.9,643.1,1977.1,636.7,1977.1z"/>
		</g>
		<g data-seat-id="26A" data-cabinClass="economy" class="economy seat">
			<path class="" d="M314.5,2044.1h-25c-6.3,0-11.6-5.4-11.6-11.8V2005c0-4.4,3.4-7.8,7.6-7.8h32.7c4.2,0,7.6,3.6,7.6,7.8v27.3
				C326,2038.7,320.9,2044.1,314.5,2044.1z"/>
			<path class="" d="M309.5,2037.1h-14.9c-6.4,0-11.7-5.3-11.7-11.8v-21.4c0-4.4,3.4-7.8,7.7-7.8h22.6c4.3,0,7.7,3.6,7.7,7.8
				v21.4C321.2,2031.9,315.9,2037.1,309.5,2037.1z"/>
		</g>
		<g data-seat-id="26B" data-cabinClass="economy" class="economy seat">
			<path class="" d="M372.5,2044.1h-25c-6.3,0-11.6-5.4-11.6-11.8V2005c0-4.4,3.4-7.8,7.6-7.8h32.7c4.2,0,7.6,3.6,7.6,7.8v27.3
				C384,2038.7,378.9,2044.1,372.5,2044.1z"/>
			<path class="" d="M367.5,2037.1h-14.9c-6.4,0-11.6-5.3-11.6-11.8v-21.4c0-4.4,3.4-7.8,7.7-7.8h22.6c4.2,0,7.7,3.6,7.7,7.8
				v21.4C379.1,2031.9,373.8,2037.1,367.5,2037.1z"/>
		</g>
		<g data-seat-id="26C" data-cabinClass="economy" class="economy seat">
			<path class="" d="M430.5,2044.1h-25c-6.3,0-11.6-5.4-11.6-11.8V2005c0-4.4,3.4-7.8,7.6-7.8h32.7c4.2,0,7.6,3.6,7.6,7.8v27.3
				C442.1,2038.7,436.9,2044.1,430.5,2044.1z"/>
			<path class="" d="M425.5,2037.1h-14.9c-6.4,0-11.7-5.3-11.7-11.8v-21.4c0-4.4,3.4-7.8,7.7-7.8h22.6c4.3,0,7.7,3.6,7.7,7.8
				v21.4C437.1,2031.9,431.9,2037.1,425.5,2037.1z"/>
		</g>
		<g data-seat-id="26D" data-cabinClass="economy" class="economy seat">
			<path class="" d="M526.5,2044.1h-25c-6.3,0-11.6-5.4-11.6-11.8V2005c0-4.4,3.4-7.8,7.6-7.8h32.7c4.2,0,7.6,3.6,7.6,7.8v27.3
				C538.1,2038.7,532.9,2044.1,526.5,2044.1z"/>
			<path class="" d="M521.5,2037.1h-14.9c-6.4,0-11.7-5.3-11.7-11.8v-21.4c0-4.4,3.4-7.8,7.7-7.8h22.6c4.3,0,7.7,3.6,7.7,7.8
				v21.4C533.1,2031.9,527.9,2037.1,521.5,2037.1z"/>
		</g>
		<g data-seat-id="26E" data-cabinClass="economy" class="economy seat">
			<path class="" d="M584.5,2044.1h-25c-6.3,0-11.6-5.4-11.6-11.8V2005c0-4.4,3.4-7.8,7.6-7.8h32.7c4.2,0,7.6,3.6,7.6,7.8v27.3
				C596.1,2038.7,590.9,2044.1,584.5,2044.1z"/>
			<path class="" d="M579.5,2037.1h-14.9c-6.4,0-11.7-5.3-11.7-11.8v-21.4c0-4.4,3.4-7.8,7.7-7.8h22.6c4.3,0,7.7,3.6,7.7,7.8
				v21.4C591.1,2031.9,585.9,2037.1,579.5,2037.1z"/>
		</g>
		<g data-seat-id="26F" data-cabinClass="economy" class="economy seat">
			<path class="" d="M642.7,2044.1h-25c-6.3,0-11.6-5.4-11.6-11.8V2005c0-4.4,3.4-7.8,7.6-7.8h32.8c4.2,0,7.6,3.6,7.6,7.8v27.3
				C654.2,2038.7,649,2044.1,642.7,2044.1z"/>
			<path class="" d="M637.7,2037.1h-14.9c-6.4,0-11.7-5.3-11.7-11.8v-21.4c0-4.4,3.4-7.8,7.7-7.8h22.6c4.3,0,7.7,3.6,7.7,7.8
				v21.4C649.2,2031.9,644.1,2037.1,637.7,2037.1z"/>
		</g>
		<g data-seat-id="27A" data-cabinClass="economy" class="economy seat">
			<path class="" d="M313.5,2104.1h-25c-6.3,0-11.6-5.4-11.6-11.8V2065c0-4.4,3.4-7.8,7.6-7.8h32.7c4.2,0,7.6,3.6,7.6,7.8v27.3
				C325,2098.7,319.9,2104.1,313.5,2104.1z"/>
			<path class="" d="M308.5,2097.1h-14.9c-6.4,0-11.7-5.3-11.7-11.8v-21.4c0-4.4,3.4-7.8,7.7-7.8h22.6c4.3,0,7.7,3.6,7.7,7.8
				v21.4C320.2,2091.9,314.9,2097.1,308.5,2097.1z"/>
		</g>
		<g data-seat-id="27B" data-cabinClass="economy" class="economy seat">
			<path class="" d="M371.5,2104.1h-25c-6.3,0-11.6-5.4-11.6-11.8V2065c0-4.4,3.4-7.8,7.6-7.8h32.7c4.2,0,7.6,3.6,7.6,7.8v27.3
				C383,2098.7,377.9,2104.1,371.5,2104.1z"/>
			<path class="" d="M366.5,2097.1h-14.9c-6.4,0-11.6-5.3-11.6-11.8v-21.4c0-4.4,3.4-7.8,7.7-7.8h22.6c4.2,0,7.7,3.6,7.7,7.8
				v21.4C378.1,2091.9,372.8,2097.1,366.5,2097.1z"/>
		</g>
		<g data-seat-id="27C" data-cabinClass="economy" class="economy seat">
			<path class="" d="M429.5,2104.1h-25c-6.3,0-11.6-5.4-11.6-11.8V2065c0-4.4,3.4-7.8,7.6-7.8h32.7c4.2,0,7.6,3.6,7.6,7.8v27.3
				C441.1,2098.7,435.9,2104.1,429.5,2104.1z"/>
			<path class="" d="M424.5,2097.1h-14.9c-6.4,0-11.7-5.3-11.7-11.8v-21.4c0-4.4,3.4-7.8,7.7-7.8h22.6c4.3,0,7.7,3.6,7.7,7.8
				v21.4C436.1,2091.9,430.9,2097.1,424.5,2097.1z"/>
		</g>
		<g data-seat-id="27D" data-cabinClass="economy" class="economy seat">
			<path class="" d="M525.5,2104.1h-25c-6.3,0-11.6-5.4-11.6-11.8V2065c0-4.4,3.4-7.8,7.6-7.8h32.7c4.2,0,7.6,3.6,7.6,7.8v27.3
				C537.1,2098.7,531.9,2104.1,525.5,2104.1z"/>
			<path class="" d="M520.5,2097.1h-14.9c-6.4,0-11.7-5.3-11.7-11.8v-21.4c0-4.4,3.4-7.8,7.7-7.8h22.6c4.3,0,7.7,3.6,7.7,7.8
				v21.4C532.1,2091.9,526.9,2097.1,520.5,2097.1z"/>
		</g>
		<g data-seat-id="27E" data-cabinClass="economy" class="economy seat">
			<path class="" d="M583.5,2104.1h-25c-6.3,0-11.6-5.4-11.6-11.8V2065c0-4.4,3.4-7.8,7.6-7.8h32.7c4.2,0,7.6,3.6,7.6,7.8v27.3
				C595.1,2098.7,589.9,2104.1,583.5,2104.1z"/>
			<path class="" d="M578.5,2097.1h-14.9c-6.4,0-11.7-5.3-11.7-11.8v-21.4c0-4.4,3.4-7.8,7.7-7.8h22.6c4.3,0,7.7,3.6,7.7,7.8
				v21.4C590.1,2091.9,584.9,2097.1,578.5,2097.1z"/>
		</g>
		<g data-seat-id="27F" data-cabinClass="economy" class="economy seat">
			<path class="" d="M641.7,2104.1h-25c-6.3,0-11.6-5.4-11.6-11.8V2065c0-4.4,3.4-7.8,7.6-7.8h32.8c4.2,0,7.6,3.6,7.6,7.8v27.3
				C653.2,2098.7,648,2104.1,641.7,2104.1z"/>
			<path class="" d="M636.7,2097.1h-14.9c-6.4,0-11.7-5.3-11.7-11.8v-21.4c0-4.4,3.4-7.8,7.7-7.8h22.6c4.3,0,7.7,3.6,7.7,7.8
				v21.4C648.2,2091.9,643.1,2097.1,636.7,2097.1z"/>
		</g>
		<g data-seat-id="28A" data-cabinClass="economy" class="economy seat">
			<path class="" d="M313.5,2164.4h-25c-6.3,0-11.6-5.4-11.6-11.8v-27.3c0-4.4,3.4-7.8,7.6-7.8h32.7c4.2,0,7.6,3.6,7.6,7.8v27.3
				C325,2159,319.9,2164.4,313.5,2164.4z"/>
			<path class="" d="M308.5,2157.4h-14.9c-6.4,0-11.7-5.3-11.7-11.8v-21.4c0-4.4,3.4-7.8,7.7-7.8h22.6c4.3,0,7.7,3.6,7.7,7.8
				v21.4C320.2,2152.2,314.9,2157.4,308.5,2157.4z"/>
		</g>
		<g data-seat-id="28B" data-cabinClass="economy" class="economy seat">
			<path class="" d="M371.5,2164.4h-25c-6.3,0-11.6-5.4-11.6-11.8v-27.3c0-4.4,3.4-7.8,7.6-7.8h32.7c4.2,0,7.6,3.6,7.6,7.8v27.3
				C383,2159,377.9,2164.4,371.5,2164.4z"/>
			<path class="" d="M366.5,2157.4h-14.9c-6.4,0-11.6-5.3-11.6-11.8v-21.4c0-4.4,3.4-7.8,7.7-7.8h22.6c4.2,0,7.7,3.6,7.7,7.8
				v21.4C378.1,2152.2,372.8,2157.4,366.5,2157.4z"/>
		</g>
		<g data-seat-id="28C" data-cabinClass="economy" class="economy seat">
			<path class="" d="M429.5,2164.4h-25c-6.3,0-11.6-5.4-11.6-11.8v-27.3c0-4.4,3.4-7.8,7.6-7.8h32.7c4.2,0,7.6,3.6,7.6,7.8v27.3
				C441.1,2159,435.9,2164.4,429.5,2164.4z"/>
			<path class="" d="M424.5,2157.4h-14.9c-6.4,0-11.7-5.3-11.7-11.8v-21.4c0-4.4,3.4-7.8,7.7-7.8h22.6c4.3,0,7.7,3.6,7.7,7.8
				v21.4C436.1,2152.2,430.9,2157.4,424.5,2157.4z"/>
		</g>
		<g data-seat-id="28D" data-cabinClass="economy" class="economy seat">
			<path class="" d="M525.5,2164.4h-25c-6.3,0-11.6-5.4-11.6-11.8v-27.3c0-4.4,3.4-7.8,7.6-7.8h32.7c4.2,0,7.6,3.6,7.6,7.8v27.3
				C537.1,2159,531.9,2164.4,525.5,2164.4z"/>
			<path class="" d="M520.5,2157.4h-14.9c-6.4,0-11.7-5.3-11.7-11.8v-21.4c0-4.4,3.4-7.8,7.7-7.8h22.6c4.3,0,7.7,3.6,7.7,7.8
				v21.4C532.1,2152.2,526.9,2157.4,520.5,2157.4z"/>
		</g>
		<g data-seat-id="28E" data-cabinClass="economy" class="economy seat">
			<path class="" d="M583.5,2164.4h-25c-6.3,0-11.6-5.4-11.6-11.8v-27.3c0-4.4,3.4-7.8,7.6-7.8h32.7c4.2,0,7.6,3.6,7.6,7.8v27.3
				C595.1,2159,589.9,2164.4,583.5,2164.4z"/>
			<path class="" d="M578.5,2157.4h-14.9c-6.4,0-11.7-5.3-11.7-11.8v-21.4c0-4.4,3.4-7.8,7.7-7.8h22.6c4.3,0,7.7,3.6,7.7,7.8
				v21.4C590.1,2152.2,584.9,2157.4,578.5,2157.4z"/>
		</g>
		<g data-seat-id="28F" data-cabinClass="economy" class="economy seat">
			<path class="" d="M641.7,2164.4h-25c-6.3,0-11.6-5.4-11.6-11.8v-27.3c0-4.4,3.4-7.8,7.6-7.8h32.8c4.2,0,7.6,3.6,7.6,7.8v27.3
				C653.2,2159,648,2164.4,641.7,2164.4z"/>
			<path class="" d="M636.7,2157.4h-14.9c-6.4,0-11.7-5.3-11.7-11.8v-21.4c0-4.4,3.4-7.8,7.7-7.8h22.6c4.3,0,7.7,3.6,7.7,7.8
				v21.4C648.2,2152.2,643.1,2157.4,636.7,2157.4z"/>
		</g>
		<g data-seat-id="29A" data-cabinClass="economy" class="economy seat">
			<path class="" d="M314.5,2224.4h-25c-6.3,0-11.6-5.4-11.6-11.8v-27.3c0-4.4,3.4-7.8,7.6-7.8h32.7c4.2,0,7.6,3.6,7.6,7.8v27.3
				C326,2219,320.9,2224.4,314.5,2224.4z"/>
			<path class="" d="M309.5,2217.4h-14.9c-6.4,0-11.7-5.3-11.7-11.8v-21.4c0-4.4,3.4-7.8,7.7-7.8h22.6c4.3,0,7.7,3.6,7.7,7.8
				v21.4C321.2,2212.2,315.9,2217.4,309.5,2217.4z"/>
		</g>
		<g data-seat-id="29B" data-cabinClass="economy" class="economy seat">
			<path class="" d="M372.5,2224.4h-25c-6.3,0-11.6-5.4-11.6-11.8v-27.3c0-4.4,3.4-7.8,7.6-7.8h32.7c4.2,0,7.6,3.6,7.6,7.8v27.3
				C384,2219,378.9,2224.4,372.5,2224.4z"/>
			<path class="" d="M367.5,2217.4h-14.9c-6.4,0-11.6-5.3-11.6-11.8v-21.4c0-4.4,3.4-7.8,7.7-7.8h22.6c4.2,0,7.7,3.6,7.7,7.8
				v21.4C379.1,2212.2,373.8,2217.4,367.5,2217.4z"/>
		</g>
		<g data-seat-id="29C" data-cabinClass="economy" class="economy seat">
			<path class="" d="M430.5,2224.4h-25c-6.3,0-11.6-5.4-11.6-11.8v-27.3c0-4.4,3.4-7.8,7.6-7.8h32.7c4.2,0,7.6,3.6,7.6,7.8v27.3
				C442.1,2219,436.9,2224.4,430.5,2224.4z"/>
			<path class="" d="M425.5,2217.4h-14.9c-6.4,0-11.7-5.3-11.7-11.8v-21.4c0-4.4,3.4-7.8,7.7-7.8h22.6c4.3,0,7.7,3.6,7.7,7.8
				v21.4C437.1,2212.2,431.9,2217.4,425.5,2217.4z"/>
		</g>
		<g data-seat-id="29D" data-cabinClass="economy" class="economy seat">
			<path class="" d="M526.5,2224.4h-25c-6.3,0-11.6-5.4-11.6-11.8v-27.3c0-4.4,3.4-7.8,7.6-7.8h32.7c4.2,0,7.6,3.6,7.6,7.8v27.3
				C538.1,2219,532.9,2224.4,526.5,2224.4z"/>
			<path class="" d="M521.5,2217.4h-14.9c-6.4,0-11.7-5.3-11.7-11.8v-21.4c0-4.4,3.4-7.8,7.7-7.8h22.6c4.3,0,7.7,3.6,7.7,7.8
				v21.4C533.1,2212.2,527.9,2217.4,521.5,2217.4z"/>
		</g>
		<g data-seat-id="29E" data-cabinClass="economy" class="economy seat">
			<path class="" d="M584.5,2224.4h-25c-6.3,0-11.6-5.4-11.6-11.8v-27.3c0-4.4,3.4-7.8,7.6-7.8h32.7c4.2,0,7.6,3.6,7.6,7.8v27.3
				C596.1,2219,590.9,2224.4,584.5,2224.4z"/>
			<path class="" d="M579.5,2217.4h-14.9c-6.4,0-11.7-5.3-11.7-11.8v-21.4c0-4.4,3.4-7.8,7.7-7.8h22.6c4.3,0,7.7,3.6,7.7,7.8
				v21.4C591.1,2212.2,585.9,2217.4,579.5,2217.4z"/>
		</g>
		<g data-seat-id="29F" data-cabinClass="economy" class="economy seat">
			<path class="" d="M642.7,2224.4h-25c-6.3,0-11.6-5.4-11.6-11.8v-27.3c0-4.4,3.4-7.8,7.6-7.8h32.8c4.2,0,7.6,3.6,7.6,7.8v27.3
				C654.2,2219,649,2224.4,642.7,2224.4z"/>
			<path class="" d="M637.7,2217.4h-14.9c-6.4,0-11.7-5.3-11.7-11.8v-21.4c0-4.4,3.4-7.8,7.7-7.8h22.6c4.3,0,7.7,3.6,7.7,7.8
				v21.4C649.2,2212.2,644.1,2217.4,637.7,2217.4z"/>
		</g>
		<g data-seat-id="30A" data-cabinClass="economy" class="economy seat">
			<path class="" d="M313.5,2284.4h-25c-6.3,0-11.6-5.4-11.6-11.8v-27.3c0-4.4,3.4-7.8,7.6-7.8h32.7c4.2,0,7.6,3.6,7.6,7.8v27.3
				C325,2279,319.9,2284.4,313.5,2284.4z"/>
			<path class="" d="M308.5,2277.4h-14.9c-6.4,0-11.7-5.3-11.7-11.8v-21.4c0-4.4,3.4-7.8,7.7-7.8h22.6c4.3,0,7.7,3.6,7.7,7.8
				v21.4C320.2,2272.2,314.9,2277.4,308.5,2277.4z"/>
		</g>
		<g data-seat-id="30B" data-cabinClass="economy" class="economy seat">
			<path class="" d="M371.5,2284.4h-25c-6.3,0-11.6-5.4-11.6-11.8v-27.3c0-4.4,3.4-7.8,7.6-7.8h32.7c4.2,0,7.6,3.6,7.6,7.8v27.3
				C383,2279,377.9,2284.4,371.5,2284.4z"/>
			<path class="" d="M366.5,2277.4h-14.9c-6.4,0-11.6-5.3-11.6-11.8v-21.4c0-4.4,3.4-7.8,7.7-7.8h22.6c4.2,0,7.7,3.6,7.7,7.8
				v21.4C378.1,2272.2,372.8,2277.4,366.5,2277.4z"/>
		</g>
		<g data-seat-id="30C" data-cabinClass="economy" class="economy seat">
			<path class="" d="M429.5,2284.4h-25c-6.3,0-11.6-5.4-11.6-11.8v-27.3c0-4.4,3.4-7.8,7.6-7.8h32.7c4.2,0,7.6,3.6,7.6,7.8v27.3
				C441.1,2279,435.9,2284.4,429.5,2284.4z"/>
			<path class="" d="M424.5,2277.4h-14.9c-6.4,0-11.7-5.3-11.7-11.8v-21.4c0-4.4,3.4-7.8,7.7-7.8h22.6c4.3,0,7.7,3.6,7.7,7.8
				v21.4C436.1,2272.2,430.9,2277.4,424.5,2277.4z"/>
		</g>
		<g data-seat-id="30D" data-cabinClass="economy" class="economy seat">
			<path class="" d="M525.5,2284.4h-25c-6.3,0-11.6-5.4-11.6-11.8v-27.3c0-4.4,3.4-7.8,7.6-7.8h32.7c4.2,0,7.6,3.6,7.6,7.8v27.3
				C537.1,2279,531.9,2284.4,525.5,2284.4z"/>
			<path class="" d="M520.5,2277.4h-14.9c-6.4,0-11.7-5.3-11.7-11.8v-21.4c0-4.4,3.4-7.8,7.7-7.8h22.6c4.3,0,7.7,3.6,7.7,7.8
				v21.4C532.1,2272.2,526.9,2277.4,520.5,2277.4z"/>
		</g>
		<g data-seat-id="30E" data-cabinClass="economy" class="economy seat">
			<path class="" d="M583.5,2284.4h-25c-6.3,0-11.6-5.4-11.6-11.8v-27.3c0-4.4,3.4-7.8,7.6-7.8h32.7c4.2,0,7.6,3.6,7.6,7.8v27.3
				C595.1,2279,589.9,2284.4,583.5,2284.4z"/>
			<path class="" d="M578.5,2277.4h-14.9c-6.4,0-11.7-5.3-11.7-11.8v-21.4c0-4.4,3.4-7.8,7.7-7.8h22.6c4.3,0,7.7,3.6,7.7,7.8
				v21.4C590.1,2272.2,584.9,2277.4,578.5,2277.4z"/>
		</g>
		<g data-seat-id="30F" data-cabinClass="economy" class="economy seat">
			<path class="" d="M641.7,2284.4h-25c-6.3,0-11.6-5.4-11.6-11.8v-27.3c0-4.4,3.4-7.8,7.6-7.8h32.8c4.2,0,7.6,3.6,7.6,7.8v27.3
				C653.2,2279,648,2284.4,641.7,2284.4z"/>
			<path class="" d="M636.7,2277.4h-14.9c-6.4,0-11.7-5.3-11.7-11.8v-21.4c0-4.4,3.4-7.8,7.7-7.8h22.6c4.3,0,7.7,3.6,7.7,7.8
				v21.4C648.2,2272.2,643.1,2277.4,636.7,2277.4z"/>
		</g>
	</g>
	<g class="Business">
		<g data-seat-id="1A" data-cabinClass="business" class="business seat">
			<path class="" d="M325.2,526.1h-28.6c-7.3,0-13.3-6-13.3-13.3V482c0-4.9,3.9-8.8,8.8-8.8h37.5c4.8,0,8.8,4,8.8,8.8v30.8
				C338.3,520,332.4,526.1,325.2,526.1z"/>
			<path class="" d="M319.2,518.2h-16.9c-7.3,0-13.3-6-13.3-13.3v-24.2c0-4.9,3.9-8.8,8.8-8.8h25.7c4.8,0,8.8,4,8.8,8.8v24.2
				C332.4,512.3,326.4,518.2,319.2,518.2z"/>
		</g>
		<g data-seat-id="1C" data-cabinClass="business" class="business seat">
			<path class="" d="M423.3,526.1h-28.6c-7.3,0-13.3-6-13.3-13.3V482c0-4.9,3.9-8.8,8.8-8.8h37.5c4.8,0,8.8,4,8.8,8.8v30.8
				C436.5,520,430.5,526.1,423.3,526.1z"/>
			<path class="" d="M417.4,518.2h-16.9c-7.3,0-13.3-6-13.3-13.3v-24.2c0-4.9,3.9-8.8,8.8-8.8h25.7c4.8,0,8.8,4,8.8,8.8v24.2
				C430.5,512.3,424.6,518.2,417.4,518.2z"/>
		</g>
		<g data-seat-id="1D" data-cabinClass="business" class="business seat">
			<path class="" d="M536.3,526.1h-28.6c-7.3,0-13.3-6-13.3-13.3V482c0-4.9,3.9-8.8,8.8-8.8h37.5c4.8,0,8.8,4,8.8,8.8v30.8
				C549.5,520,543.5,526.1,536.3,526.1z"/>
			<path class="" d="M530.4,518.2h-16.9c-7.3,0-13.3-6-13.3-13.3v-24.2c0-4.9,3.9-8.8,8.8-8.8h25.7c4.8,0,8.8,4,8.8,8.8v24.2
				C543.5,512.3,537.6,518.2,530.4,518.2z"/>
		</g>
		<g data-seat-id="1F" data-cabinClass="business" class="business seat">
			<path class="" d="M634.4,526.1h-28.6c-7.3,0-13.3-6-13.3-13.3V482c0-4.9,3.9-8.8,8.8-8.8h37.5c4.8,0,8.8,4,8.8,8.8v30.8
				C647.6,520,641.6,526.1,634.4,526.1z"/>
			<path class="" d="M628.5,518.2h-16.9c-7.3,0-13.3-6-13.3-13.3v-24.2c0-4.9,3.9-8.8,8.8-8.8h25.7c4.8,0,8.8,4,8.8,8.8v24.2
				C641.6,512.3,635.7,518.2,628.5,518.2z"/>
		</g>
		<g data-seat-id="2A" data-cabinClass="business" class="business seat">
			<path class="" d="M325.2,593.5h-28.6c-7.3,0-13.3-6-13.3-13.3v-30.8c0-4.9,3.9-8.8,8.8-8.8h37.5c4.8,0,8.8,4,8.8,8.8v30.8
				C338.3,587.6,332.4,593.5,325.2,593.5z"/>
			<path class="" d="M319.2,585.8h-16.9c-7.3,0-13.3-6-13.3-13.3v-24.2c0-4.9,3.9-8.8,8.8-8.8h25.7c4.8,0,8.8,4,8.8,8.8v24.2
				C332.4,579.8,326.4,585.8,319.2,585.8z"/>
		</g>
		<g data-seat-id="2C" data-cabinClass="business" class="business seat">
			<path class="" d="M423.3,593.5h-28.6c-7.3,0-13.3-6-13.3-13.3v-30.8c0-4.9,3.9-8.8,8.8-8.8h37.5c4.8,0,8.8,4,8.8,8.8v30.8
				C436.5,587.6,430.5,593.5,423.3,593.5z"/>
			<path class="" d="M417.4,585.8h-16.9c-7.3,0-13.3-6-13.3-13.3v-24.2c0-4.9,3.9-8.8,8.8-8.8h25.7c4.8,0,8.8,4,8.8,8.8v24.2
				C430.5,579.8,424.6,585.8,417.4,585.8z"/>
		</g>
		<g data-seat-id="2D" data-cabinClass="business" class="business seat">
			<path class="" d="M536.3,593.5h-28.6c-7.3,0-13.3-6-13.3-13.3v-30.8c0-4.9,3.9-8.8,8.8-8.8h37.5c4.8,0,8.8,4,8.8,8.8v30.8
				C549.5,587.6,543.5,593.5,536.3,593.5z"/>
			<path class="" d="M530.4,585.8h-16.9c-7.3,0-13.3-6-13.3-13.3v-24.2c0-4.9,3.9-8.8,8.8-8.8h25.7c4.8,0,8.8,4,8.8,8.8v24.2
				C543.5,579.8,537.6,585.8,530.4,585.8z"/>
		</g>
		<g data-seat-id="2F" data-cabinClass="business" class="business seat">
			<path class="" d="M634.4,593.5h-28.6c-7.3,0-13.3-6-13.3-13.3v-30.8c0-4.9,3.9-8.8,8.8-8.8h37.5c4.8,0,8.8,4,8.8,8.8v30.8
				C647.6,587.6,641.6,593.5,634.4,593.5z"/>
			<path class="" d="M628.5,585.8h-16.9c-7.3,0-13.3-6-13.3-13.3v-24.2c0-4.9,3.9-8.8,8.8-8.8h25.7c4.8,0,8.8,4,8.8,8.8v24.2
				C641.6,579.8,635.7,585.8,628.5,585.8z"/>
		</g>
		<g data-seat-id="3A" data-cabinClass="business" class="business seat">
			<path class="" d="M325.2,661.1h-28.6c-7.3,0-13.3-6-13.3-13.3V617c0-4.9,3.9-8.8,8.8-8.8h37.5c4.8,0,8.8,4,8.8,8.8v30.8
				C338.3,655.1,332.4,661.1,325.2,661.1z"/>
			<path class="" d="M319.2,653.3h-16.9c-7.3,0-13.3-6-13.3-13.3v-24.2c0-4.9,3.9-8.8,8.8-8.8h25.7c4.8,0,8.8,4,8.8,8.8V640
				C332.4,647.4,326.4,653.3,319.2,653.3z"/>
		</g>
		<g data-seat-id="3C" data-cabinClass="business" class="business seat">
			<path class="" d="M423.3,661.1h-28.6c-7.3,0-13.3-6-13.3-13.3V617c0-4.9,3.9-8.8,8.8-8.8h37.5c4.8,0,8.8,4,8.8,8.8v30.8
				C436.5,655.1,430.5,661.1,423.3,661.1z"/>
			<path class="" d="M417.4,653.3h-16.9c-7.3,0-13.3-6-13.3-13.3v-24.2c0-4.9,3.9-8.8,8.8-8.8h25.7c4.8,0,8.8,4,8.8,8.8V640
				C430.5,647.4,424.6,653.3,417.4,653.3z"/>
		</g>
		<g data-seat-id="3D" data-cabinClass="business" class="business seat">
			<path class="" d="M536.3,661.1h-28.6c-7.3,0-13.3-6-13.3-13.3V617c0-4.9,3.9-8.8,8.8-8.8h37.5c4.8,0,8.8,4,8.8,8.8v30.8
				C549.4,655.1,543.5,661.1,536.3,661.1z"/>
			<path class="" d="M530.3,653.3h-16.9c-7.3,0-13.3-6-13.3-13.3v-24.2c0-4.9,3.9-8.8,8.8-8.8h25.8c4.8,0,8.8,4,8.8,8.8V640
				C543.5,647.4,537.5,653.3,530.3,653.3z"/>
		</g>
		<g data-seat-id="3F" data-cabinClass="business" class="business seat">
			<path class="" d="M634.4,661.1h-28.6c-7.3,0-13.3-6-13.3-13.3V617c0-4.9,3.9-8.8,8.8-8.8h37.5c4.8,0,8.8,4,8.8,8.8v30.8
				C647.6,655.1,641.6,661.1,634.4,661.1z"/>
			<path class="" d="M628.5,653.3h-16.9c-7.3,0-13.3-6-13.3-13.3v-24.2c0-4.9,3.9-8.8,8.8-8.8h25.7c4.8,0,8.8,4,8.8,8.8V640
				C641.6,647.4,635.7,653.3,628.5,653.3z"/>
		</g>
	</g>
	<g class="columnLabelMid">
		<text transform="matrix(1 0 0 1 293.5 691.411)" class="columnLabel">A</text>
		<text transform="matrix(1 0 0 1 352.5 692.411)" class="columnLabel">B</text>
		<text transform="matrix(1 0 0 1 409.5 691.411)" class="columnLabel">C</text>
		<text transform="matrix(1 0 0 1 505.5 691.411)" class="columnLabel">D</text>
		<text transform="matrix(1 0 0 1 564.5 692.411)" class="columnLabel">E</text>
		<text transform="matrix(1 0 0 1 622.5 691.411)" class="columnLabel">F</text>
	</g>
	<g class="columnLabelTop1">
		<text transform="matrix(1 0 0 1 301.5 458.3494)" class="columnLabel">A</text>
		<text transform="matrix(1 0 0 1 400.5 458.3494)" class="columnLabel">C</text>
		<text transform="matrix(1 0 0 1 511.5 458.3494)" class="columnLabel">D</text>
		<text transform="matrix(1 0 0 1 614.5 458.3494)" class="columnLabel">F</text>
	</g>
</g>
</svg>
