<?xml version="1.0" encoding="utf-8"?>
<!-- Generator: Adobe Illustrator 22.1.0, SVG Export Plug-In . SVG Version: 6.00 Build 0)  -->
<svg version="1.1" id="Layer_1" xmlns="http://www.w3.org/2000/svg" xmlns:xlink="http://www.w3.org/1999/xlink" x="0px" y="0px"
	 viewBox="0 0 303.9 89.8" style="enable-background:new 0 0 303.9 89.8;" xml:space="preserve">
<style type="text/css">
	.st0{fill:none;stroke:#FFFFFF;stroke-miterlimit:10;}
	.st1{fill:#FFFFFF;}
	.st2{fill:#4CBCFF;}
	.st3{font-family:'Tenso-Light';}
	.st4{font-size:43.3368px;}
	.st5{font-family:'Tenso-Medium';}
	.st6{font-size:19.2608px;}
	.st7{font-size:16.8532px;}
	.st8{font-size:18.057px;}
	.st9{fill:#3FA9F5;}
	.st10{fill:#11647E;}
</style>
<g>
	<path class="st0" d="M97.1,22.7c0,0-0.8,0-1.2,1.1c-1.6,4.1-4.7,14.6-4.7,14.7c-0.8,1.3-6.1-8.7-8.5-13.2
		C79.9,20.1,71.8,13,68.4,10.5c-3.3-2.5-9.8,4.2-13.1,7.6c-3.3,3.4-6.5,7.6-9.8,9.6c-3.3,2.2-11.4,7.9-13.1,12.2
		c-0.8,2.3-2.9,5.3-5.4,8.3"/>
	<path class="st0" d="M225.2,63.3c-4.5-8.7-21.7-36-25.2-37.9c-3.4-1.9-7-6.4-7.9-7.6c-0.1-0.1-0.4-0.1-0.5,0
		c-1.7,2.8-13,21.2-14.4,21.9c-1.4,0.7-5.4,3.5-6.4,4.2c-0.1,0.1-0.4,0.1-0.5,0.1c-1.6-0.5-2.6-1.3-5.2-2.6
		c-4.9-2.5-14.6-2.5-21.1-4.9c-6.7-2.4-10.5-7.3-10.5-7.3"/>
	<path class="st1" d="M209.3,40.1c-0.2-0.2-1.1-0.2-1.2,0.1c-0.7,1.2-2.4-1.3-3-0.1c-0.8-0.7-1.3-1.3-2.5-1.1c-0.8,0.2-1.3,0.6-2,1
		c-2,1-3.6-0.4-5.3-1.1c-0.7-0.4-1.7-0.7-2.5-0.7c-2.3,0-2.9,0.6-4.6-1.2c-2.2-2.3-1.9-0.1-4.5-2.2c-0.2-0.2-0.8,0.5-1.1,0.7
		c-1.1,0.7-1.6,0.7-2.6,1.4c-0.4-0.4-0.2-0.8-0.5-1.2c0.4-0.2,0.6-0.5,0.8-0.6c1.3-0.7,8.3-12.2,10.7-16.4c0.5-0.7,1.4-0.8,2-0.1
		c1.6,1.9,4.5,5.2,7.1,6.5c2,1.2,6.3,7.2,12.5,17.3C210.5,43.6,211.3,41.9,209.3,40.1z"/>
	<path class="st1" d="M133.7,29.4c-2.4,1.6-5.9-2.3-7.3-3.4l0,0c-0.7-0.5-3.5-2.8-4.6-2c-1.6,0.8-2.6-0.4-4-0.8
		c-1-0.4-1.7-0.6-2.8-0.5c-0.1,0-0.4,0.1-0.5,0.1c-0.5,0.8-1.3,1.6-1.9,2.3h-0.1c-0.5-0.5-1.1-0.8-1.6-1.4c-0.2-0.2-0.7-0.2-0.8,0
		c-1,1.2-1.7,2.4-3.1,3.4h-0.1c-0.6-1.1-1.6-2.2-2.5-3.1c-0.2-0.1-0.6-0.1-0.7,0.1c-0.7,1-1.8,1.6-2.5,2.5c0,0,0,0-0.1,0
		c-1.7-1.1-3.9-1.9-5.7-3v-0.1c0.7-1.3,1.3-2.5,1.7-3.4c1.3-2.6,3.9-5.7,4.6-7.2c0.6-1.6,6.6-11.3,7.2-12.3c0,0,0.1-0.5,0.6-0.5l0,0
		c1.7-0.2,2.3,1.4,3.1,2.9c0.4,0.6,0.6,1.1,0.8,1.3c0.1,0.1,0.5,0.2,0.6,0.1l0.8-0.6c0.5-0.6,3.1,2.2,3.5,2.8
		c0.6,1.1,11.1,16.4,14.4,20.8c0.5,0.6,1,1.2,1.3,1.8C133.9,29.3,133.8,29.4,133.7,29.4z"/>
	<path class="st1" d="M85.9,33.6c-0.2,0-0.5,0.1-0.7,0.2c-0.6,0.7-1.1,1.3-1.4,2c-1.2-0.5-2.3-1-3.5-1.3c-0.4-0.1-1.1,0-1.1,0.4
		c-0.1,0.2-1,3-1.4,2.6c-0.4-0.2-1-0.2-1.2,0.1c-0.1,0.1-1.6,2-1.7,2c-0.7-0.2-1.4-0.6-2.2-1c-0.5-0.2-1,0-1.1,0.4
		c-0.5,1.2-1.3,2.3-2,3.5c-1.2-1.6-2.6-3.1-3.6-4.9c-0.2-0.5-1.3-0.4-1.4,0.1c-0.2,1-0.7,1.9-1.3,2.8c-1.3-2.9-2.8-5.8-5.5-8.2
		c-0.4-0.2-1-0.2-1.2,0.1c-2,2.4-3.5,5.1-5.7,7.5c-1.3-2.8-2.4-5.5-3.9-8.2c-0.2-0.6-1.2-0.6-1.4,0c-0.8,1.9-2,3.6-3.9,5.1
		c-1.1-1.9-2.5-2.8-4.8-1.8c3-2.9,6.9-5.5,8.8-6.9c3.3-2.2,6.5-6.3,9.8-9.6S65.1,8.4,68.4,11c3.3,2.5,11.4,9.6,14.2,14.7
		c1.2,2.3,3.3,5.4,4.9,7.9C87,33.6,86.5,33.6,85.9,33.6z"/>
	<path class="st2" d="M155.7,73.6c0,0,0.5,0.2,1.3,0.7c0.8,0.5,2.2,1.1,3.9,1.8c1.7,0.7,3.7,1.6,6.1,2.3c2.4,0.8,5.2,1.6,8.2,2
		c3,0.6,6.3,1,9.8,1c0.8,0,1.7,0,2.5-0.1c1-0.1,1.9-0.1,2.8-0.2c0.5,0,1-0.1,1.3-0.1c0.5-0.1,0.8-0.1,1.3-0.2
		c0.8-0.1,1.8-0.2,2.8-0.5c0.5-0.1,1-0.1,1.3-0.2c0.5-0.1,1-0.2,1.3-0.4c0.5-0.1,1-0.2,1.3-0.4c0.5-0.1,1-0.2,1.3-0.5
		c0.5-0.1,1-0.2,1.3-0.5c0.5-0.1,1-0.2,1.3-0.5c0.5-0.1,1-0.2,1.4-0.5c0.5-0.1,1-0.4,1.3-0.5c0.5-0.1,1-0.4,1.4-0.5
		c0.5-0.2,1-0.4,1.3-0.6c1-0.4,1.9-0.8,2.8-1.2c1.9-0.8,3.7-1.7,5.5-2.6c1-0.5,1.8-1,2.6-1.4l0.6-0.4L221,70h0.1l0.1-0.1l0.2-0.1
		l0.4-0.2c0.5-0.2,1-0.5,1.6-0.7c2-1,4.1-1.7,6.1-2.4c0.5-0.1,1-0.4,1.6-0.5c0.5-0.1,1-0.2,1.6-0.5c1-0.2,2-0.6,3.1-0.8
		c1.1-0.2,2-0.5,3.1-0.6c0.5-0.1,1-0.2,1.6-0.2c0.5-0.1,1-0.1,1.6-0.2c4.1-0.6,8.1-0.8,11.9-0.6c1.9,0.1,3.7,0.2,5.5,0.5
		c0.8,0.1,1.7,0.2,2.6,0.5c0.8,0.1,1.7,0.2,2.4,0.5c3.1,0.7,6,1.7,8.5,2.6c0.6,0.2,1.2,0.5,1.7,0.8c0.6,0.2,1.1,0.5,1.6,0.7
		c0.5,0.2,1,0.5,1.4,0.7c0.2,0.1,0.5,0.2,0.6,0.4c0.2,0.1,0.5,0.2,0.6,0.4c0.8,0.5,1.6,0.8,2.2,1.3c0.6,0.5,1.1,0.7,1.6,1
		c0.8,0.6,1.2,0.8,1.2,0.8s-0.5-0.1-1.4-0.5c-0.5-0.1-1-0.4-1.7-0.6c-0.7-0.2-1.4-0.5-2.4-0.7c-0.2-0.1-0.5-0.1-0.6-0.2
		c-0.2-0.1-0.5-0.1-0.7-0.2c-0.5-0.1-1-0.2-1.6-0.5c-0.6-0.2-1.1-0.2-1.7-0.5c-0.6-0.2-1.2-0.2-1.8-0.5c-2.4-0.5-5.3-1-8.4-1.2
		c-3-0.2-6.4-0.2-9.9-0.1c-3.5,0.2-7.1,0.7-10.8,1.4c-1,0.1-1.9,0.5-2.8,0.6c-1,0.2-1.9,0.5-2.8,0.7c-1,0.2-1.9,0.6-2.8,0.8
		c-0.5,0.1-1,0.2-1.3,0.5c-0.5,0.1-1,0.4-1.3,0.5c-1.9,0.6-3.7,1.4-5.5,2.3c-0.5,0.2-0.8,0.5-1.3,0.6l-0.2,0.1l-0.1,0.1l-0.1,0.1
		h-0.1c-0.1,0.1,0.1-0.1,0.1-0.1l-0.8,0.5c-1,0.6-1.9,1.1-3,1.6c-3.9,2-7.9,3.7-12.2,5.1c-0.5,0.1-1,0.4-1.6,0.5
		c-0.5,0.1-1,0.2-1.6,0.5c-0.5,0.1-1,0.2-1.6,0.5c-0.6,0.2-1,0.2-1.6,0.4c-0.5,0.1-1,0.2-1.6,0.4c-0.5,0.1-1,0.2-1.6,0.2
		c-0.5,0.1-1,0.2-1.6,0.2c-0.5,0.1-1,0.1-1.6,0.2c-1,0.1-2,0.2-3.1,0.4c-0.5,0-1.1,0.1-1.6,0.1c-0.5,0-1.1,0.1-1.6,0.1
		c-1,0-1.9,0-2.8,0h-0.2h-0.1h0.2h-0.4c-0.2,0-0.5-0.1-0.7-0.1c-0.5-0.1-1-0.1-1.4-0.1c-3.9-0.5-7.3-1.2-10.5-2.3
		c-3.1-1.1-5.9-2.3-8.2-3.5c-0.6-0.2-1.2-0.6-1.7-1c-0.5-0.2-1-0.6-1.6-1c-0.5-0.2-1-0.6-1.3-0.8c-0.4-0.2-0.8-0.6-1.2-0.8
		c-0.4-0.2-0.7-0.5-1.1-0.8c-0.4-0.2-0.6-0.5-1-0.7c-0.6-0.5-1-0.8-1.4-1.2c-0.4-0.4-0.6-0.6-0.8-0.8
		C155.8,73.6,155.7,73.6,155.7,73.6z"/>
</g>
<text transform="matrix(1 0 0 1 2.670288e-05 69.4942)" class="st1 st3 st4">NatureBay</text>
<text transform="matrix(1 0 0 1 1.9707 85.5411)" class="st1 st5 st6">Hotels </text>
<text transform="matrix(1 0 0 1 61.2588 85.5411)" class="st1 st5 st7">and </text>
<text transform="matrix(1 0 0 1 91.3184 85.5411)" class="st1 st5 st8">Resorts</text>
<path class="st9" d="M212.7,89.8c0,0,0.2-0.2,0.8-0.7c0.6-0.5,1.3-1.1,2.5-1.8c1.1-0.7,2.4-1.7,4.1-2.5c1.6-1,3.5-1.9,5.5-2.9
	c1.1-0.5,2.2-1,3.3-1.4c1.1-0.5,2.3-1,3.6-1.4c1.2-0.5,2.5-0.8,3.9-1.3c1.3-0.5,2.6-0.8,4.1-1.2c2.8-0.7,5.8-1.3,8.8-1.7
	c1.6-0.2,3-0.5,4.6-0.5c0.7,0,1.6-0.1,2.3-0.1l2.3-0.1h1.2h1.2c0.7,0,1.6,0,2.3,0c1.6,0,3.1,0.2,4.6,0.2c1.6,0.2,3,0.4,4.5,0.6
	c1.4,0.2,2.9,0.5,4.3,0.8c0.7,0.1,1.4,0.4,2,0.5c0.7,0.1,1.3,0.4,2,0.6c1.3,0.5,2.6,0.8,3.9,1.3c1.2,0.5,2.4,1,3.6,1.4
	c1.1,0.5,2.2,1.1,3.3,1.6c1.1,0.5,2,1.1,2.9,1.6c0.5,0.2,0.8,0.5,1.3,0.8c0.5,0.2,0.8,0.5,1.2,0.7c0.7,0.5,1.4,1.1,2.2,1.4
	c0.6,0.5,1.2,0.8,1.8,1.3c1.1,0.8,1.8,1.6,2.4,2c0.5,0.5,0.8,0.7,0.8,0.7s-0.4-0.1-1.1-0.4c-0.7-0.2-1.7-0.6-2.9-1.1
	s-2.8-0.8-4.5-1.4c-0.8-0.2-1.8-0.5-2.8-0.8c-1-0.2-1.9-0.6-3-0.8c-1.1-0.2-2.2-0.6-3.3-0.8c-1.1-0.2-2.3-0.5-3.5-0.7
	c-1.2-0.2-2.5-0.5-3.7-0.7c-1.3-0.2-2.6-0.4-4-0.6c-0.6-0.1-1.3-0.1-2-0.2c-0.7-0.1-1.3-0.1-2-0.2c-0.7-0.1-1.3-0.1-2-0.1
	c-0.7,0-1.4-0.1-2-0.1c-1.4,0-2.8-0.1-4.2-0.1c-0.7,0-1.4,0-2.2,0h-1.1h-1.1h-2.2c-0.7,0-1.4,0.1-2.2,0.1c-0.7,0-1.4,0.1-2.2,0.1
	c-0.7,0.1-1.4,0.1-2.2,0.2c-0.7,0-1.4,0.1-2,0.2c-0.7,0.1-1.4,0.1-2,0.2c-0.7,0.1-1.3,0.2-2,0.2c-0.7,0.1-1.3,0.1-2,0.2
	c-2.6,0.4-5.3,0.8-7.7,1.3c-2.4,0.5-4.8,1-7,1.4c-2.2,0.5-4.1,1-5.9,1.4s-3.3,0.8-4.6,1.2c-1.2,0.4-2.3,0.6-2.9,0.8
	C213,89.7,212.7,89.8,212.7,89.8z"/>
<path class="st10" d="M273.7,79.8"/>
<path class="st0" d="M27.5,45.5"/>
</svg>
