<svg id="large_towel" data-name="large towel" xmlns="http://www.w3.org/2000/svg" width="500" height="500" viewBox="0 0 500 500">
  <metadata><?xpacket begin="﻿" id="W5M0MpCehiHzreSzNTczkc9d"?>
<x:xmpmeta xmlns:x="adobe:ns:meta/" x:xmptk="Adobe XMP Core 5.6-c138 79.159824, 2016/09/14-01:09:01        ">
   <rdf:RDF xmlns:rdf="http://www.w3.org/1999/02/22-rdf-syntax-ns#">
      <rdf:Description rdf:about=""/>
   </rdf:RDF>
</x:xmpmeta>
                                                                                                    
                                                                                                    
                                                                                                    
                                                                                                    
                                                                                                    
                                                                                                    
                                                                                                    
                                                                                                    
                                                                                                    
                                                                                                    
                                                                                                    
                                                                                                    
                                                                                                    
                                                                                                    
                                                                                                    
                                                                                                    
                                                                                                    
                                                                                                    
                                                                                                    
                                                                                                    
                           
<?xpacket end="w"?></metadata>
<defs>
    <style>
      .cls-1 {
        fill: #fff;
        fill-rule: evenodd;
      }
    </style>
  </defs>
  <path id="top" class="cls-1" d="M18.767,400.387H485a10,10,0,0,1,10,10V449a10,10,0,0,1-10,10H18.767a10,10,0,0,1-10-10V410.387A10,10,0,0,1,18.767,400.387Z"/>
  <path id="botton" class="cls-1" d="M18.767,316.077H485a10,10,0,0,1,10,10V364.69a10,10,0,0,1-10,10H18.767a10,10,0,0,1-10-10V326.077A10,10,0,0,1,18.767,316.077Z"/>
  <path id="end_background" data-name="end background" class="cls-1" d="M8.767,363.586H63.188v52.708H8.767V363.586Z"/>
  <path id="top-2" data-name="top" class="cls-1" d="M62.836,245.35H444.82a10,10,0,0,1,10,10V286.5a10,10,0,0,1-10,10H62.836a10,10,0,0,1-10-10V255.35A10,10,0,0,1,62.836,245.35Z"/>
  <path id="botton-2" data-name="botton" class="cls-1" d="M62.836,169.239H444.82a10,10,0,0,1,10,10v31.149a10,10,0,0,1-10,10H62.836a10,10,0,0,1-10-10V179.239A10,10,0,0,1,62.836,169.239Z"/>
  <path id="end_background-2" data-name="end background" class="cls-1" d="M52.224,203.348H97.61v53.566H52.224V203.348Z"/>
  <path id="top-3" data-name="top" class="cls-1" d="M100.474,108.852H401.486a10,10,0,0,1,10,10V139.66a10,10,0,0,1-10,10H100.474a10,10,0,0,1-10-10V118.852A10,10,0,0,1,100.474,108.852Z"/>
  <path id="botton-3" data-name="botton" class="cls-1" d="M100.26,41H401.7a10,10,0,0,1,10,10V72.115a10,10,0,0,1-10,10H100.26a10,10,0,0,1-10-10V51A10,10,0,0,1,100.26,41Z"/>
  <path id="end_background-3" data-name="end background" class="cls-1" d="M90.26,61.557h35.28v63.63H90.26V61.557Z"/>
</svg>
