<svg id="pillows" xmlns="http://www.w3.org/2000/svg" width="500" height="500" viewBox="0 0 500 500">
  <metadata><?xpacket begin="﻿" id="W5M0MpCehiHzreSzNTczkc9d"?>
<x:xmpmeta xmlns:x="adobe:ns:meta/" x:xmptk="Adobe XMP Core 5.6-c138 79.159824, 2016/09/14-01:09:01        ">
   <rdf:RDF xmlns:rdf="http://www.w3.org/1999/02/22-rdf-syntax-ns#">
      <rdf:Description rdf:about=""/>
   </rdf:RDF>
</x:xmpmeta>
                                                                                                    
                                                                                                    
                                                                                                    
                                                                                                    
                                                                                                    
                                                                                                    
                                                                                                    
                                                                                                    
                                                                                                    
                                                                                                    
                                                                                                    
                                                                                                    
                                                                                                    
                                                                                                    
                                                                                                    
                                                                                                    
                                                                                                    
                                                                                                    
                                                                                                    
                                                                                                    
                           
<?xpacket end="w"?></metadata>
<defs>
    <style>
      .cls-1 {
        fill: none;
        stroke: #fff;
        stroke-width: 30px;
        fill-rule: evenodd;
      }
    </style>
  </defs>
  <path id="pillow_shape_2" data-name="pillow shape 2" class="cls-1" d="M112.322,328.852c-38.979,2.412-66.7,5.431-66.7,5.431-38.167,0-29.344-45.607-22.9-106.037C26.888,189.207,17,152.9,17,152.9,17,137.493,29.816,125,45.625,125c0,0,73.286,5.581,154.575,5.581,74.413,0,157.438-5.581,157.438-5.581,15.809,0,28.624,12.493,28.624,27.9L387,177.739m-245.637-2.232s73.285,5.581,154.574,5.581c74.413,0,157.438-5.581,157.438-5.581,15.809,0,28.625,12.493,28.625,27.9,0,0-5.725,39.7-5.725,78.133,0,38.3,5.725,75.341,5.725,75.341,0,15.412-12.816,27.905-28.625,27.905,0,0-79.155-8.371-157.438-8.371-77.721,0-154.574,8.371-154.574,8.371-38.167,0-29.345-45.608-22.9-106.037,4.164-39.039-5.725-75.342-5.725-75.342C112.737,188,125.553,175.507,141.363,175.507Z"/>
</svg>
