<svg id="gym" xmlns="http://www.w3.org/2000/svg" width="500" height="500" viewBox="0 0 500 500">
  <metadata><?xpacket begin="﻿" id="W5M0MpCehiHzreSzNTczkc9d"?>
<x:xmpmeta xmlns:x="adobe:ns:meta/" x:xmptk="Adobe XMP Core 5.6-c138 79.159824, 2016/09/14-01:09:01        ">
   <rdf:RDF xmlns:rdf="http://www.w3.org/1999/02/22-rdf-syntax-ns#">
      <rdf:Description rdf:about=""/>
   </rdf:RDF>
</x:xmpmeta>
                                                                                                    
                                                                                                    
                                                                                                    
                                                                                                    
                                                                                                    
                                                                                                    
                                                                                                    
                                                                                                    
                                                                                                    
                                                                                                    
                                                                                                    
                                                                                                    
                                                                                                    
                                                                                                    
                                                                                                    
                                                                                                    
                                                                                                    
                                                                                                    
                                                                                                    
                                                                                                    
                           
<?xpacket end="w"?></metadata>
<defs>
    <style>
      .cls-1 {
        fill: #fff;
        fill-rule: evenodd;
      }

      .cls-2 {
        fill: none;
        stroke: #fff;
        stroke-width: 25px;
      }
    </style>
  </defs>
  <path id="right_weight_large" data-name="right weight large" class="cls-1" d="M336.446,130h60.292a10,10,0,0,1,10,10V361a10,10,0,0,1-10,10H336.446a10,10,0,0,1-10-10V140A10,10,0,0,1,336.446,130Z"/>
  <path id="left_weight_large" data-name="left weight large" class="cls-1" d="M97.758,130H158.05a10,10,0,0,1,10,10V361a10,10,0,0,1-10,10H97.758a10,10,0,0,1-10-10V140A10,10,0,0,1,97.758,130Z"/>
  <path id="left_weight_small" data-name="left weight small" class="cls-1" d="M56.548,162.125h45.1a10,10,0,0,1,10,10V331.156a10,10,0,0,1-10,10h-45.1a10,10,0,0,1-10-10V172.125A10,10,0,0,1,56.548,162.125Z"/>
  <path id="right_weight_small" data-name="right weight small" class="cls-1" d="M397.2,162.125h45.067a10,10,0,0,1,10,10V331.156a10,10,0,0,1-10,10H397.2a10,10,0,0,1-10-10V172.125A10,10,0,0,1,397.2,162.125Z"/>
  <rect id="bar" class="cls-2" x="14" y="219.531" width="473" height="61.938" rx="7.5" ry="7.5"/>
</svg>
